<?xml version="1.0" encoding="UTF-8"?>
<svg version="1.1" xmlns="http://www.w3.org/2000/svg" width="500" height="74">
<path d="M0 0 C4.95 0 9.9 0 15 0 C14.67 2.97 14.34 5.94 14 9 C15.3303125 8.9071875 15.3303125 8.9071875 16.6875 8.8125 C20.34485017 9.01951982 22.04777151 9.916074 25 12 C25.33 11.01 25.66 10.02 26 9 C26.66 9 27.32 9 28 9 C28.66 6.03 29.32 3.06 30 0 C34.95 0 39.9 0 45 0 C46 3 46 3 45 9 C49.29 8.67 53.58 8.34 58 8 C58.99 5.36 59.98 2.72 61 0 C65.95 0 70.9 0 76 0 C75.25 12.5 75.25 12.5 73 17 C68.38 17 63.76 17 59 17 C58.649375 18.2375 58.29875 19.475 57.9375 20.75 C57.74027344 21.44609375 57.54304687 22.1421875 57.33984375 22.859375 C56.80463932 25.32823129 56.80463932 25.32823129 58 29 C61.96 29.33 65.92 29.66 70 30 C69.53910547 36.29889197 69.01872253 40.9438324 67 47 C62.05 47 57.1 47 52 47 C51.690625 48.918125 51.38125 50.83625 51.0625 52.8125 C50.54659556 56.01110753 50.02529349 58.92411953 49 62 C44.05 62 39.1 62 34 62 C32.58312881 57.74938644 33.80679961 55.28148375 35 51 C33.35 51 31.7 51 30 51 C31.04750487 43.22381678 32.21595848 35.47959467 33.5625 27.75 C33.68923096 27.01144775 33.81596191 26.27289551 33.9465332 25.51196289 C34.87920711 20.24158578 34.87920711 20.24158578 36 18 C33.03 18 30.06 18 27 18 C27.04125 19.03125 27.0825 20.0625 27.125 21.125 C26.9973257 25.08290341 26.86222209 27.50833357 25 31 C22.46075775 32.67382703 19.82369125 33.88365695 17 35 C17.3609375 35.98742188 17.721875 36.97484375 18.09375 37.9921875 C18.56266681 39.28639791 19.03140769 40.58067206 19.5 41.875 C19.85771484 42.85146484 19.85771484 42.85146484 20.22265625 43.84765625 C22 48.7734375 22 48.7734375 22 51 C18.04 51 14.08 51 10 51 C6.15384615 42.41025641 6.15384615 42.41025641 4.875 39 C4.17605071 36.82128186 4.17605071 36.82128186 2 36 C1.93941406 36.66386719 1.87882812 37.32773437 1.81640625 38.01171875 C1.73261719 38.89472656 1.64882812 39.77773438 1.5625 40.6875 C1.44068359 41.99267578 1.44068359 41.99267578 1.31640625 43.32421875 C1.0091178 45.92289271 0.54837616 48.44244733 0 51 C-22.15414569 54.83502986 -22.15414569 54.83502986 -30 50 C-31.73742033 48.07660228 -32.76672899 46.31238315 -34 44 C-34.7425 44.763125 -35.485 45.52625 -36.25 46.3125 C-41.09085897 51.04333944 -44.45729942 53.08037534 -51.25 53.3125 C-56.22933388 53.24687451 -59.9359926 51.85032193 -64 49 C-68.00818362 44.78626851 -69.13078573 41.62593135 -69.09765625 35.89453125 C-69.09443359 34.91162109 -69.09121094 33.92871094 -69.08789062 32.91601562 C-69.07951172 31.89185547 -69.07113281 30.86769531 -69.0625 29.8125 C-69.05798828 28.77673828 -69.05347656 27.74097656 -69.04882812 26.67382812 C-69.0370401 24.11582734 -69.02058515 21.55794267 -69 19 C-71.97 19 -74.94 19 -78 19 C-78 29.89 -78 40.78 -78 52 C-81.63 52 -85.26 52 -89 52 C-89 41.11 -89 30.22 -89 19 C-92.63 19 -96.26 19 -100 19 C-100 16.03 -100 13.06 -100 10 C-86.14 10 -72.28 10 -58 10 C-57.625 23.8125 -57.625 23.8125 -57.52197266 28.15942383 C-57.4863623 29.28888428 -57.45075195 30.41834473 -57.4140625 31.58203125 C-57.3826416 32.73936768 -57.3512207 33.8967041 -57.31884766 35.08911133 C-57.20528967 38.19127028 -57.20528967 38.19127028 -55 41 C-53.02252878 41.36297936 -53.02252878 41.36297936 -50.875 41.1875 C-49.59625 41.125625 -48.3175 41.06375 -47 41 C-44.90465815 37.54452397 -44.69928372 34.70802469 -44.5859375 30.703125 C-44.54726562 29.49785156 -44.50859375 28.29257812 -44.46875 27.05078125 C-44.42234375 25.16939453 -44.42234375 25.16939453 -44.375 23.25 C-44.33632812 21.98027344 -44.29765625 20.71054687 -44.2578125 19.40234375 C-44.16355778 16.2683743 -44.07794834 13.13441051 -44 10 C-40.37 10 -36.74 10 -33 10 C-32.505 11.98 -32.505 11.98 -32 14 C-31.236875 13.360625 -30.47375 12.72125 -29.6875 12.0625 C-24.81882551 8.32607539 -19.91496838 8.47203762 -14 9 C-11.11329493 9.84476288 -8.17042146 10.82957854 -6 13 C-5.38125 11.96875 -4.7625 10.9375 -4.125 9.875 C-3.77695313 9.29492188 -3.42890625 8.71484375 -3.0703125 8.1171875 C-1.64946845 5.43438464 -1.64946845 5.43438464 0 0 Z M-21.6875 19.5 C-22.120625 19.995 -22.55375 20.49 -23 21 C-22.30613342 24.21933851 -22.30613342 24.21933851 -19.3828125 25.421875 C-18.30773437 25.86015625 -17.23265625 26.2984375 -16.125 26.75 C-15.05507812 27.19859375 -13.98515625 27.6471875 -12.8828125 28.109375 C-9.97350732 29.31459536 -9.97350732 29.31459536 -7 28 C-7 26.35 -7 24.7 -7 23 C-8.093125 22.9175 -9.18625 22.835 -10.3125 22.75 C-14 22 -14 22 -15.75 19.9375 C-16.1625 19.298125 -16.575 18.65875 -17 18 C-20.00259517 17.66781808 -20.00259517 17.66781808 -21.6875 19.5 Z M5 18 C4.67 20.97 4.34 23.94 4 27 C5.98 27 7.96 27 10 27 C10.33 24.03 10.66 21.06 11 18 C9.02 18 7.04 18 5 18 Z M-33 29 C-33 32.3 -33 35.6 -33 39 C-31.4325 39.0825 -29.865 39.165 -28.25 39.25 C-23.70896859 39.67212405 -22.02336968 40.51149652 -19 44 C-16.78141747 43.86358623 -16.78141747 43.86358623 -15 43 C-14.67 41.35 -14.34 39.7 -14 38 C-14.556875 37.75765625 -15.11375 37.5153125 -15.6875 37.265625 C-20.87376863 34.98787189 -25.95149623 32.56853701 -31 30 C-31.66 29.67 -32.32 29.34 -33 29 Z M45 32 C43.41744803 36.32564205 42.54855348 40.428721 42 45 C43.27875 45.020625 44.5575 45.04125 45.875 45.0625 C46.59429687 45.07410156 47.31359375 45.08570313 48.0546875 45.09765625 C50.08185404 45.12649242 50.08185404 45.12649242 52 44 C52.69227032 41.19019327 52.69227032 41.19019327 53.125 37.9375 C53.37636719 36.28041016 53.37636719 36.28041016 53.6328125 34.58984375 C53.75398437 33.73519531 53.87515625 32.88054688 54 32 C51.03 32 48.06 32 45 32 Z " fill="#1F5EBC" transform="translate(110,4)"/>
<path d="M0 0 C3.83500608 2.81755549 5.56762703 4.76538109 7.0625 9.25 C7.59337424 14.30635952 7.65218185 18.13163787 5.25 22.6875 C1.95723684 26.54473684 1.95723684 26.54473684 0.0625 28.25 C0.64515625 28.43304688 1.2278125 28.61609375 1.828125 28.8046875 C5.08467251 30.9111955 6.2378827 33.96435735 7.8125 37.375 C9.42125 40.778125 9.42125 40.778125 11.0625 44.25 C12.3825 39.3 13.7025 34.35 15.0625 29.25 C12.7525 29.25 10.4425 29.25 8.0625 29.25 C8.0625 19.02 8.0625 8.79 8.0625 -1.75 C18.6225 -1.75 29.1825 -1.75 40.0625 -1.75 C40.3925 6.83 40.7225 15.41 41.0625 24.25 C43.98057508 16.44210035 43.98057508 16.44210035 46.89624023 8.63330078 C47.25919189 7.66376465 47.62214355 6.69422852 47.99609375 5.6953125 C48.5538147 4.20281982 48.5538147 4.20281982 49.12280273 2.68017578 C50.0625 0.25 50.0625 0.25 51.0625 -1.75 C54.3625 -1.75 57.6625 -1.75 61.0625 -1.75 C64.40615002 4.57582436 66.92471352 11.01113592 69.3125 17.75 C69.67601562 18.76320313 70.03953125 19.77640625 70.4140625 20.8203125 C71.30133002 23.2953219 72.18402582 25.77185887 73.0625 28.25 C85.08289864 29.19014291 97.00973146 29.36114233 109.0625 29.25 C108.7325 31.56 108.4025 33.87 108.0625 36.25 C104.1025 36.25 100.1425 36.25 96.0625 36.25 C96.0625 37.9 96.0625 39.55 96.0625 41.25 C99.0325 41.25 102.0025 41.25 105.0625 41.25 C105.10504356 43.24954746 105.10330783 45.25041636 105.0625 47.25 C104.0625 48.25 104.0625 48.25 101.77734375 48.34765625 C100.86082031 48.33605469 99.94429688 48.32445312 99 48.3125 C98.08089844 48.30347656 97.16179687 48.29445312 96.21484375 48.28515625 C95.50457031 48.27355469 94.79429687 48.26195312 94.0625 48.25 C94.0625 49.9 94.0625 51.55 94.0625 53.25 C94.77277344 53.29898438 95.48304688 53.34796875 96.21484375 53.3984375 C97.13394531 53.47320312 98.05304688 53.54796875 99 53.625 C99.91652344 53.69460937 100.83304687 53.76421875 101.77734375 53.8359375 C102.53144531 53.97257812 103.28554688 54.10921875 104.0625 54.25 C104.3925 54.91 104.7225 55.57 105.0625 56.25 C105.48136475 55.46761963 105.90022949 54.68523926 106.33178711 53.87915039 C107.88276725 50.98417412 109.43534046 48.09006442 110.98901367 45.1965332 C111.66185844 43.94264693 112.33406134 42.688416 113.00561523 41.43383789 C113.96951521 39.63337233 114.93569663 37.83414805 115.90234375 36.03515625 C116.48363037 34.95113525 117.06491699 33.86711426 117.66381836 32.75024414 C119.0625 30.25 119.0625 30.25 120.0625 29.25 C121.58178038 29.17820036 123.10417482 29.16607993 124.625 29.1875 C125.45128906 29.19652344 126.27757812 29.20554687 127.12890625 29.21484375 C128.08603516 29.23224609 128.08603516 29.23224609 129.0625 29.25 C131.08000406 34.68453797 132.12857792 40.1960401 133.1875 45.875 C133.46013672 47.28652344 133.46013672 47.28652344 133.73828125 48.7265625 C134.48556356 52.68210193 135.0625 56.20430867 135.0625 60.25 C132.0925 60.25 129.1225 60.25 126.0625 60.25 C126.0625 58.6 126.0625 56.95 126.0625 55.25 C124.26989868 55.30995322 122.47824205 55.3987241 120.6875 55.5 C119.68976563 55.54640625 118.69203125 55.5928125 117.6640625 55.640625 C116.37628906 55.94226562 116.37628906 55.94226562 115.0625 56.25 C114.4025 57.57 113.7425 58.89 113.0625 60.25 C103.4925 60.25 93.9225 60.25 84.0625 60.25 C84.65564762 54.31852381 85.26028678 48.50504988 86.125 42.625 C86.30160156 41.41585937 86.47820312 40.20671875 86.66015625 38.9609375 C86.79292969 38.06632812 86.92570312 37.17171875 87.0625 36.25 C84.4225 36.25 81.7825 36.25 79.0625 36.25 C78.94132812 37.22839844 78.82015625 38.20679688 78.6953125 39.21484375 C77.79529307 46.3126831 76.77126554 53.29288317 75.0625 60.25 C72.0925 60.25 69.1225 60.25 66.0625 60.25 C67.3825 52.66 68.7025 45.07 70.0625 37.25 C67.7525 36.92 65.4425 36.59 63.0625 36.25 C63.3925 33.94 63.7225 31.63 64.0625 29.25 C63.4025 29.25 62.7425 29.25 62.0625 29.25 C61.5675 27.765 61.5675 27.765 61.0625 26.25 C57.7625 25.92 54.4625 25.59 51.0625 25.25 C50.7325 26.57 50.4025 27.89 50.0625 29.25 C49.4025 29.58 48.7425 29.91 48.0625 30.25 C48.8875 30.971875 49.7125 31.69375 50.5625 32.4375 C53.0625 35.25 53.0625 35.25 53.375 38.0625 C53.271875 38.784375 53.16875 39.50625 53.0625 40.25 C50.0925 40.25 47.1225 40.25 44.0625 40.25 C44.0625 39.59 44.0625 38.93 44.0625 38.25 C42.62594146 38.16868537 41.1880517 38.11066441 39.75 38.0625 C38.94949219 38.02769531 38.14898437 37.99289063 37.32421875 37.95703125 C35.0150912 38.07270944 35.0150912 38.07270944 33.32421875 39.51171875 C31.16717857 42.48349238 30.94977162 45.64269168 31.0625 49.25 C31.96007556 51.39780077 31.96007556 51.39780077 34.0625 52.25 C38.14044425 52.67478586 39.59326119 52.56282587 43.0625 50.25 C40.4225 49.92 37.7825 49.59 35.0625 49.25 C35.3925 46.94 35.7225 44.63 36.0625 42.25 C41.6725 42.25 47.2825 42.25 53.0625 42.25 C52.87126907 48.46500533 52.27700649 52.28862758 47.85546875 56.8046875 C43.21309828 60.54690335 38.77773735 61.52956056 32.875 61.1875 C28.58941266 60.56869015 25.97424396 59.61670396 23.0625 56.25 C20.51657399 51.27387189 20.75388008 46.56089544 22.0625 41.25 C24.57741578 36.40645849 27.81995824 33.52832772 32.0625 30.25 C31.4025 29.92 30.7425 29.59 30.0625 29.25 C30.0625 21.66 30.0625 14.07 30.0625 6.25 C26.1025 6.25 22.1425 6.25 18.0625 6.25 C18.0625 7.57 18.0625 8.89 18.0625 10.25 C20.7025 10.25 23.3425 10.25 26.0625 10.25 C26.0625 12.89 26.0625 15.53 26.0625 18.25 C23.4225 18.25 20.7825 18.25 18.0625 18.25 C18.0625 21.88 18.0625 25.51 18.0625 29.25 C19.7125 29.25 21.3625 29.25 23.0625 29.25 C22.4806676 36.39711654 21.39715406 43.34479725 20 50.375 C19.81373047 51.33148438 19.62746094 52.28796875 19.43554688 53.2734375 C18.98191556 55.59975194 18.52279121 57.92499415 18.0625 60.25 C15.0925 60.25 12.1225 60.25 9.0625 60.25 C6.7525 55.63 4.4425 51.01 2.0625 46.25 C1.7325 46.25 1.4025 46.25 1.0625 46.25 C0.0725 50.87 -0.9175 55.49 -1.9375 60.25 C-4.5775 60.25 -7.2175 60.25 -9.9375 60.25 C-9.36108005 50.11295948 -7.70106149 40.23242354 -5.9375 30.25 C-6.5975 30.25 -7.2575 30.25 -7.9375 30.25 C-7.98575928 30.8486084 -8.03401855 31.4472168 -8.08374023 32.06396484 C-8.65225303 38.4404439 -9.68730165 44.61301142 -11 50.875 C-11.18626953 51.78378906 -11.37253906 52.69257812 -11.56445312 53.62890625 C-12.01767296 55.8369003 -12.47539693 58.04385124 -12.9375 60.25 C-15.5775 60.25 -18.2175 60.25 -20.9375 60.25 C-20.49667561 52.36076353 -19.41419003 44.70514723 -17.95385742 36.95141602 C-17.40155708 34.00092458 -16.9375 31.25979896 -16.9375 28.25 C-18.44408114 27.03818474 -19.9516655 25.82754613 -21.46875 24.62890625 C-24.62806082 21.66285115 -24.8550989 17.99160988 -25.3125 13.875 C-24.77877386 8.71564735 -23.30062901 4.48776408 -19.46484375 0.85546875 C-13.63170186 -3.04708244 -6.17098726 -3.28771415 0 0 Z M-13.875 8.3125 C-15.57652633 11.4152833 -15.36269574 13.78769185 -14.9375 17.25 C-13.39464369 19.79331238 -13.39464369 19.79331238 -10.9375 21.25 C-8.05530274 21.74208246 -6.65596913 21.71187301 -4.1875 20.125 C-2.40724474 17.45461711 -2.06548412 15.44960304 -1.9375 12.25 C-2.74957646 9.28506935 -2.74957646 9.28506935 -4.9375 7.25 C-8.41986342 6.75251951 -10.74573783 6.596453 -13.875 8.3125 Z M56.0625 10.25 C55.4025 12.56 54.7425 14.87 54.0625 17.25 C55.3825 17.25 56.7025 17.25 58.0625 17.25 C57.7325 14.94 57.4025 12.63 57.0625 10.25 C56.7325 10.25 56.4025 10.25 56.0625 10.25 Z M122.0625 40.25 C119.8611134 44.05427492 119.8611134 44.05427492 119.0625 48.25 C120.7125 48.25 122.3625 48.25 124.0625 48.25 C123.7325 45.61 123.4025 42.97 123.0625 40.25 C122.7325 40.25 122.4025 40.25 122.0625 40.25 Z " fill="#4280CA" transform="translate(315.9375,4.75)"/>
<path d="M0 0 C3 1.6875 3 1.6875 5 4.6875 C4.625 8.375 4.625 8.375 4 11.6875 C2.54257537 11.76846803 1.08387193 11.82667774 -0.375 11.875 C-1.59316406 11.92720703 -1.59316406 11.92720703 -2.8359375 11.98046875 C-3.55007812 11.88378906 -4.26421875 11.78710938 -5 11.6875 C-5.99 10.2025 -5.99 10.2025 -7 8.6875 C-9.58380177 8.43719023 -9.58380177 8.43719023 -12 8.6875 C-12 10.3375 -12 11.9875 -12 13.6875 C-11.33613281 13.85765625 -10.67226562 14.0278125 -9.98828125 14.203125 C-8.66376953 14.56664062 -8.66376953 14.56664062 -7.3125 14.9375 C-6.44238281 15.16953125 -5.57226562 15.4015625 -4.67578125 15.640625 C-1.59066278 16.84764945 0.5152499 18.52061884 3 20.6875 C2.38909604 24.16929686 1.75893864 27.64732953 1.125 31.125 C0.86396484 32.61483398 0.86396484 32.61483398 0.59765625 34.13476562 C0.42363281 35.07900391 0.24960938 36.02324219 0.0703125 36.99609375 C-0.16534424 38.30791626 -0.16534424 38.30791626 -0.40576172 39.64624023 C-0.60186035 40.31985596 -0.79795898 40.99347168 -1 41.6875 C-5.6036076 43.9893038 -11.54717417 43.08239754 -16.3125 41.5625 C-20.41524323 39.86735459 -21.94401546 37.54247101 -24 33.6875 C-24.7425 34.450625 -25.485 35.21375 -26.25 36 C-31.09085897 40.73083944 -34.45729942 42.76787534 -41.25 43 C-46.22933388 42.93437451 -49.9359926 41.53782193 -54 38.6875 C-58.00818362 34.47376851 -59.13078573 31.31343135 -59.09765625 25.58203125 C-59.09443359 24.59912109 -59.09121094 23.61621094 -59.08789062 22.60351562 C-59.07951172 21.57935547 -59.07113281 20.55519531 -59.0625 19.5 C-59.05798828 18.46423828 -59.05347656 17.42847656 -59.04882812 16.36132812 C-59.0370401 13.80332734 -59.02058515 11.24544267 -59 8.6875 C-61.97 8.6875 -64.94 8.6875 -68 8.6875 C-68 19.5775 -68 30.4675 -68 41.6875 C-71.63 41.6875 -75.26 41.6875 -79 41.6875 C-79 30.7975 -79 19.9075 -79 8.6875 C-82.63 8.6875 -86.26 8.6875 -90 8.6875 C-90 5.7175 -90 2.7475 -90 -0.3125 C-76.14 -0.3125 -62.28 -0.3125 -48 -0.3125 C-47.625 13.5 -47.625 13.5 -47.52197266 17.84692383 C-47.4863623 18.97638428 -47.45075195 20.10584473 -47.4140625 21.26953125 C-47.3826416 22.42686768 -47.3512207 23.5842041 -47.31884766 24.77661133 C-47.20528967 27.87877028 -47.20528967 27.87877028 -45 30.6875 C-43.02252878 31.05047936 -43.02252878 31.05047936 -40.875 30.875 C-39.59625 30.813125 -38.3175 30.75125 -37 30.6875 C-34.90465815 27.23202397 -34.69928372 24.39552469 -34.5859375 20.390625 C-34.54726562 19.18535156 -34.50859375 17.98007812 -34.46875 16.73828125 C-34.42234375 14.85689453 -34.42234375 14.85689453 -34.375 12.9375 C-34.33632812 11.66777344 -34.29765625 10.39804687 -34.2578125 9.08984375 C-34.16355778 5.9558743 -34.07794834 2.82191051 -34 -0.3125 C-30.37 -0.3125 -26.74 -0.3125 -23 -0.3125 C-22.505 1.6675 -22.505 1.6675 -22 3.6875 C-20.8553125 2.7284375 -20.8553125 2.7284375 -19.6875 1.75 C-14.12679007 -2.51752157 -6.43136581 -2.58065309 0 0 Z M-23 18.6875 C-23 21.9875 -23 25.2875 -23 28.6875 C-21.4325 28.77 -19.865 28.8525 -18.25 28.9375 C-13.70896859 29.35962405 -12.02336968 30.19899652 -9 33.6875 C-6.78141747 33.55108623 -6.78141747 33.55108623 -5 32.6875 C-4.67 31.0375 -4.34 29.3875 -4 27.6875 C-4.556875 27.44515625 -5.11375 27.2028125 -5.6875 26.953125 C-10.87376863 24.67537189 -15.95149623 22.25603701 -21 19.6875 C-21.66 19.3575 -22.32 19.0275 -23 18.6875 Z " fill="#468DE2" transform="translate(100,14.3125)"/>
<path d="M0 0 C11.55 0 23.1 0 35 0 C35.4375 9.875 35.4375 9.875 35.56811523 12.98388672 C35.6252771 14.19455811 35.6252771 14.19455811 35.68359375 15.4296875 C35.73858032 16.67081299 35.73858032 16.67081299 35.79467773 17.93701172 C35.88238327 20.06179429 35.88238327 20.06179429 37 22 C38.65 21.67 40.3 21.34 42 21 C42.03758423 20.09906616 42.03758423 20.09906616 42.07592773 19.17993164 C42.1915528 16.47388563 42.31442936 13.76821717 42.4375 11.0625 C42.47681641 10.11697266 42.51613281 9.17144531 42.55664062 8.19726562 C42.61948242 6.84858398 42.61948242 6.84858398 42.68359375 5.47265625 C42.72025146 4.64000244 42.75690918 3.80734863 42.79467773 2.94946289 C43 1 43 1 44 0 C45.51928038 -0.07179964 47.04167482 -0.08392007 48.5625 -0.0625 C49.38878906 -0.05347656 50.21507812 -0.04445312 51.06640625 -0.03515625 C51.70449219 -0.02355469 52.34257812 -0.01195312 53 0 C53.08761663 3.54150893 53.14059739 7.08273633 53.1875 10.625 C53.21263672 11.62402344 53.23777344 12.62304688 53.26367188 13.65234375 C53.31845814 19.16749448 53.2598227 23.30403164 50 28 C49.01 28.66 48.02 29.32 47 30 C48.32 30.33 49.64 30.66 51 31 C51.81410023 35.04134603 52.62599659 39.08313179 53.4375 43.125 C53.66759766 44.26710937 53.89769531 45.40921875 54.13476562 46.5859375 C54.35712891 47.69453125 54.57949219 48.803125 54.80859375 49.9453125 C55.01282959 50.96125488 55.21706543 51.97719727 55.42749023 53.02392578 C56.00173184 56.00900262 56.5129683 58.9995718 57 62 C54.03 62 51.06 62 48 62 C47.67 60.35 47.34 58.7 47 57 C43.37 57 39.74 57 36 57 C35.34 58.65 34.68 60.3 34 62 C28.06 62 22.12 62 16 62 C14.68 59.03 13.36 56.06 12 53 C11.67 53 11.34 53 11 53 C10.34 55.97 9.68 58.94 9 62 C6.36 62 3.72 62 1 62 C1.39820098 54.87357553 2.26099799 47.89800053 3.5 40.875 C3.63059814 40.12871338 3.76119629 39.38242676 3.89575195 38.61352539 C4.86782595 33.26434811 4.86782595 33.26434811 6 31 C6.66 31 7.32 31 8 31 C8 23.41 8 15.82 8 8 C5.36 8 2.72 8 0 8 C0 5.36 0 2.72 0 0 Z M17 8 C17 15.59 17 23.18 17 31 C19.64 31.66 22.28 32.32 25 33 C27 34.1875 27 34.1875 28 36 C28.4105956 40.43443247 28.32173868 44.13043554 26 48 C23.375 49.3125 23.375 49.3125 21 50 C21.44876616 51.64846769 21.90930488 53.29373455 22.375 54.9375 C22.63023437 55.85402344 22.88546875 56.77054688 23.1484375 57.71484375 C23.76660104 60.16745087 23.76660104 60.16745087 26 61 C27.93835621 57.29211361 29.87553224 53.58361187 31.8125 49.875 C32.35970703 48.82828125 32.90691406 47.7815625 33.47070312 46.703125 C36.01991618 41.82099575 38.56425653 36.93985869 41 32 C39.98679687 31.76216797 39.98679687 31.76216797 38.953125 31.51953125 C38.06109375 31.28621094 37.1690625 31.05289063 36.25 30.8125 C35.36828125 30.59207031 34.4865625 30.37164062 33.578125 30.14453125 C30.14751201 28.621547 28.89991845 27.24713336 27 24 C26.40731459 21.06204551 26.30515944 18.17864574 26.25 15.1875 C26.22035156 14.39923828 26.19070312 13.61097656 26.16015625 12.79882812 C26.08988707 10.86642554 26.04262866 8.93320985 26 7 C22.98153829 7 19.99515278 7.6256059 17 8 Z M13 38 C12.67 40.31 12.34 42.62 12 45 C15.465 44.505 15.465 44.505 19 44 C19.38218767 42.34385343 19.71395102 40.67542976 20 39 C18.87465895 37.64381501 18.87465895 37.64381501 15.9375 37.9375 C14.968125 37.958125 13.99875 37.97875 13 38 Z M44 42 C42.68 44.64 41.36 47.28 40 50 C41.98 50 43.96 50 46 50 C45.67 47.36 45.34 44.72 45 42 C44.67 42 44.34 42 44 42 Z " fill="#215DB8" transform="translate(206,3)"/>
<path d="M0 0 C0.99515625 0.0721875 1.9903125 0.144375 3.015625 0.21875 C14.35590867 0.98923554 25.63648669 1.10576176 37 1 C36.67 3.31 36.34 5.62 36 8 C32.04 8 28.08 8 24 8 C24 9.65 24 11.3 24 13 C26.97 13 29.94 13 33 13 C33.04254356 14.99954746 33.04080783 17.00041636 33 19 C32 20 32 20 29.71484375 20.09765625 C28.79832031 20.08605469 27.88179688 20.07445313 26.9375 20.0625 C26.01839844 20.05347656 25.09929687 20.04445313 24.15234375 20.03515625 C23.44207031 20.02355469 22.73179687 20.01195313 22 20 C22 21.65 22 23.3 22 25 C22.71027344 25.04898438 23.42054688 25.09796875 24.15234375 25.1484375 C25.07144531 25.22320312 25.99054688 25.29796875 26.9375 25.375 C27.85402344 25.44460937 28.77054687 25.51421875 29.71484375 25.5859375 C30.46894531 25.72257812 31.22304688 25.85921875 32 26 C32.495 26.99 32.495 26.99 33 28 C33.41886475 27.21761963 33.83772949 26.43523926 34.26928711 25.62915039 C35.82026725 22.73417412 37.37284046 19.84006442 38.92651367 16.9465332 C39.59935844 15.69264693 40.27156134 14.438416 40.94311523 13.18383789 C41.90701521 11.38337233 42.87319663 9.58414805 43.83984375 7.78515625 C44.42113037 6.70113525 45.00241699 5.61711426 45.60131836 4.50024414 C47 2 47 2 48 1 C49.51928038 0.92820036 51.04167482 0.91607993 52.5625 0.9375 C53.38878906 0.94652344 54.21507812 0.95554688 55.06640625 0.96484375 C55.70449219 0.97644531 56.34257812 0.98804688 57 1 C59.01750406 6.43453797 60.06607792 11.9460401 61.125 17.625 C61.30675781 18.56601562 61.48851562 19.50703125 61.67578125 20.4765625 C62.42306356 24.43210193 63 27.95430867 63 32 C60.03 32 57.06 32 54 32 C54 30.35 54 28.7 54 27 C52.20739868 27.05995322 50.41574205 27.1487241 48.625 27.25 C47.62726563 27.29640625 46.62953125 27.3428125 45.6015625 27.390625 C44.74304688 27.59171875 43.88453125 27.7928125 43 28 C42.34 29.32 41.68 30.64 41 32 C31.43 32 21.86 32 12 32 C12.59314762 26.06852381 13.19778678 20.25504988 14.0625 14.375 C14.23910156 13.16585937 14.41570312 11.95671875 14.59765625 10.7109375 C14.73042969 9.81632812 14.86320312 8.92171875 15 8 C12.36 8 9.72 8 7 8 C6.87882812 8.97839844 6.75765625 9.95679688 6.6328125 10.96484375 C5.73279307 18.0626831 4.70876554 25.04288317 3 32 C0.03 32 -2.94 32 -6 32 C-4.68 24.41 -3.36 16.82 -2 9 C-4.31 8.67 -6.62 8.34 -9 8 C-9.042721 6.33388095 -9.04063832 4.66617115 -9 3 C-8 2 -8 2 -6.15234375 1.90234375 C-4.1015625 1.93489583 -2.05078125 1.96744792 0 2 C0 1.34 0 0.68 0 0 Z M50 12 C47.7986134 15.80427492 47.7986134 15.80427492 47 20 C48.65 20 50.3 20 52 20 C51.67 17.36 51.34 14.72 51 12 C50.67 12 50.34 12 50 12 Z " fill="#205CB7" transform="translate(388,33)"/>
<path d="M0 0 C2.90826185 1.34057023 3.89357117 2.4381271 6 5 C6 6.65 6 8.3 6 10 C2.7 10 -0.6 10 -4 10 C-4 9.34 -4 8.68 -4 8 C-5.32 8 -6.64 8 -8 8 C-5.72880727 10.56965075 -3.67968467 11.70272246 -0.5 12.9375 C5.45798273 15.50476085 5.45798273 15.50476085 7 19 C7.59909679 23.02250703 7.34662495 24.50172663 5 27.875 C4.34 28.57625 3.68 29.2775 3 30 C3.928125 30.5775 4.85625 31.155 5.8125 31.75 C8.62999827 33.73882231 10.33188574 35.03446354 12 38 C12 39.32 12 40.64 12 42 C10.54207116 42.05399736 9.08357288 42.09279177 7.625 42.125 C6.81289063 42.14820313 6.00078125 42.17140625 5.1640625 42.1953125 C3 42 3 42 1 40 C-3.59770626 39.55336148 -3.59770626 39.55336148 -7.875 41 C-9.65940055 44.17226765 -10.11292422 47.37889653 -10 51 C-9.12129086 53.212981 -9.12129086 53.212981 -7 54 C-3.35265021 53.77669287 -1.61627165 53.61627165 1 51 C3.1640625 50.8046875 3.1640625 50.8046875 5.625 50.875 C6.44226563 50.89304688 7.25953125 50.91109375 8.1015625 50.9296875 C8.72804688 50.95289063 9.35453125 50.97609375 10 51 C9.13912298 55.31354337 7.38014495 57.13422493 4 60 C-1.76012708 63.38831005 -6.64196268 63.57334483 -13 62 C-16.37810256 60.09981731 -17.6215329 58.73973116 -19.375 55.3125 C-20.45327359 49.59764995 -20.00325428 44.93219344 -17.3125 39.75 C-14.74874835 36.70121425 -12.14670259 34.43154291 -9 32 C-9.928125 31.62875 -10.85625 31.2575 -11.8125 30.875 C-15.5513305 28.67568794 -16.47112921 26.99205151 -18 23 C-18 22.34 -18 21.68 -18 21 C-14.7 21 -11.4 21 -8 21 C-7.67 21.66 -7.34 22.32 -7 23 C-6.01 22.67 -5.02 22.34 -4 22 C-5.03060547 21.51080078 -5.03060547 21.51080078 -6.08203125 21.01171875 C-6.98308594 20.57472656 -7.88414062 20.13773438 -8.8125 19.6875 C-9.70582031 19.25824219 -10.59914063 18.82898438 -11.51953125 18.38671875 C-15.05561059 16.4098555 -16.6633908 15.08195813 -17.875 11.1875 C-18.0302769 7.22793904 -17.1678379 5.28913337 -15 2 C-10.40819053 -0.95692346 -5.2598742 -0.74382059 0 0 Z " fill="#4384D1" transform="translate(284,3)"/>
<path d="M0 0 C11.55 0 23.1 0 35 0 C35.4375 9.875 35.4375 9.875 35.56811523 12.98388672 C35.6252771 14.19455811 35.6252771 14.19455811 35.68359375 15.4296875 C35.73858032 16.67081299 35.73858032 16.67081299 35.79467773 17.93701172 C35.88238327 20.06179429 35.88238327 20.06179429 37 22 C38.65 21.67 40.3 21.34 42 21 C42.03758423 20.09906616 42.03758423 20.09906616 42.07592773 19.17993164 C42.1915528 16.47388563 42.31442936 13.76821717 42.4375 11.0625 C42.47681641 10.11697266 42.51613281 9.17144531 42.55664062 8.19726562 C42.61948242 6.84858398 42.61948242 6.84858398 42.68359375 5.47265625 C42.72025146 4.64000244 42.75690918 3.80734863 42.79467773 2.94946289 C43 1 43 1 44 0 C45.51928038 -0.07179964 47.04167482 -0.08392007 48.5625 -0.0625 C49.38878906 -0.05347656 50.21507812 -0.04445312 51.06640625 -0.03515625 C51.70449219 -0.02355469 52.34257812 -0.01195312 53 0 C53.08761663 3.54150893 53.14059739 7.08273633 53.1875 10.625 C53.21263672 11.62402344 53.23777344 12.62304688 53.26367188 13.65234375 C53.31839702 19.16134129 53.26997106 23.31557635 50 28 C44.69225647 31.2496389 39.15670783 32.11387806 33 31 C29.88344161 29.30348636 27.61039852 27.22079704 26 24 C25.7677354 21.28737884 25.58063765 18.59226874 25.4375 15.875 C25.39431641 15.12089844 25.35113281 14.36679687 25.30664062 13.58984375 C25.2005168 11.72678112 25.09974999 9.86341476 25 8 C22.36 8 19.72 8 17 8 C17 15.59 17 23.18 17 31 C14.36 31 11.72 31 9 31 C9 23.41 9 15.82 9 8 C6.03 8 3.06 8 0 8 C0 5.36 0 2.72 0 0 Z " fill="#4284D1" transform="translate(206,3)"/>
<path d="M0 0 C3.83500608 2.81755549 5.56762703 4.76538109 7.0625 9.25 C7.59337424 14.30635952 7.65218185 18.13163787 5.25 22.6875 C4.528125 23.533125 3.80625 24.37875 3.0625 25.25 C2.65 25.8275 2.2375 26.405 1.8125 27 C-1.12019622 29.09478302 -4.43888895 29.50439437 -7.9375 30.25 C-7.98575928 30.8486084 -8.03401855 31.4472168 -8.08374023 32.06396484 C-8.65225303 38.4404439 -9.68730165 44.61301142 -11 50.875 C-11.18626953 51.78378906 -11.37253906 52.69257812 -11.56445312 53.62890625 C-12.01767296 55.8369003 -12.47539693 58.04385124 -12.9375 60.25 C-15.5775 60.25 -18.2175 60.25 -20.9375 60.25 C-20.49667561 52.36076353 -19.41419003 44.70514723 -17.95385742 36.95141602 C-17.40155708 34.00092458 -16.9375 31.25979896 -16.9375 28.25 C-18.44408114 27.03818474 -19.9516655 25.82754613 -21.46875 24.62890625 C-24.62806082 21.66285115 -24.8550989 17.99160988 -25.3125 13.875 C-24.77877386 8.71564735 -23.30062901 4.48776408 -19.46484375 0.85546875 C-13.63170186 -3.04708244 -6.17098726 -3.28771415 0 0 Z M-13.875 8.3125 C-15.57652633 11.4152833 -15.36269574 13.78769185 -14.9375 17.25 C-13.39464369 19.79331238 -13.39464369 19.79331238 -10.9375 21.25 C-8.05530274 21.74208246 -6.65596913 21.71187301 -4.1875 20.125 C-2.40724474 17.45461711 -2.06548412 15.44960304 -1.9375 12.25 C-2.74957646 9.28506935 -2.74957646 9.28506935 -4.9375 7.25 C-8.41986342 6.75251951 -10.74573783 6.596453 -13.875 8.3125 Z " fill="#4386D6" transform="translate(315.9375,4.75)"/>
<path d="M0 0 C3.3 0 6.6 0 10 0 C12.475 8.91 12.475 8.91 15 18 C16.06541016 16.17662109 16.06541016 16.17662109 17.15234375 14.31640625 C18.08064886 12.73172379 19.00903865 11.14709093 19.9375 9.5625 C20.40607422 8.76005859 20.87464844 7.95761719 21.35742188 7.13085938 C22.0293457 5.98520508 22.0293457 5.98520508 22.71484375 4.81640625 C23.33540649 3.75595093 23.33540649 3.75595093 23.96850586 2.67407227 C25 1 25 1 26 0 C27.68608966 -0.07205511 29.37500659 -0.08386068 31.0625 -0.0625 C31.98160156 -0.05347656 32.90070313 -0.04445312 33.84765625 -0.03515625 C34.55792969 -0.02355469 35.26820313 -0.01195312 36 0 C35.31138336 4.25500585 34.61751598 8.50911121 33.91870117 12.76245117 C33.68156591 14.21045531 33.4458845 15.65869831 33.21166992 17.10717773 C32.87537609 19.18537407 32.53391681 21.26266416 32.19140625 23.33984375 C31.98717041 24.59144287 31.78293457 25.84304199 31.57250977 27.13256836 C31 30 31 30 30 31 C27.32941149 31.14115161 24.67567762 31.04247107 22 31 C22.33 27.04 22.66 23.08 23 19 C22.57847656 19.78246094 22.15695312 20.56492187 21.72265625 21.37109375 C21.17480469 22.38300781 20.62695312 23.39492188 20.0625 24.4375 C19.51722656 25.44683594 18.97195313 26.45617187 18.41015625 27.49609375 C17 30 17 30 16 31 C13.66702567 31.04092937 11.33294775 31.04241723 9 31 C7.54815522 26.46298506 6.76490804 22.81938524 7 18 C6.34 18 5.68 18 5 18 C4.93941406 18.77085938 4.87882812 19.54171875 4.81640625 20.3359375 C4.73261719 21.33882812 4.64882813 22.34171875 4.5625 23.375 C4.48128906 24.37273438 4.40007812 25.37046875 4.31640625 26.3984375 C4 29 4 29 3 31 C0.36 31 -2.28 31 -5 31 C-4.4181676 23.85288346 -3.33465406 16.90520275 -1.9375 9.875 C-1.75123047 8.91851562 -1.56496094 7.96203125 -1.37304688 6.9765625 C-0.91941556 4.65024806 -0.46029121 2.32500585 0 0 Z " fill="#1F5CB8" transform="translate(457,34)"/>
<path d="M0 0 C3 1.6875 3 1.6875 5 4.6875 C4.625 8.375 4.625 8.375 4 11.6875 C2.54257537 11.76846803 1.08387193 11.82667774 -0.375 11.875 C-1.18710938 11.90980469 -1.99921875 11.94460937 -2.8359375 11.98046875 C-3.55007812 11.88378906 -4.26421875 11.78710938 -5 11.6875 C-5.66 10.6975 -6.32 9.7075 -7 8.6875 C-9.58380177 8.43719023 -9.58380177 8.43719023 -12 8.6875 C-12 10.3375 -12 11.9875 -12 13.6875 C-11.33613281 13.85765625 -10.67226562 14.0278125 -9.98828125 14.203125 C-9.10527344 14.44546875 -8.22226563 14.6878125 -7.3125 14.9375 C-6.44238281 15.16953125 -5.57226562 15.4015625 -4.67578125 15.640625 C-1.59066278 16.84764945 0.5152499 18.52061884 3 20.6875 C2.38909604 24.16929686 1.75893864 27.64732953 1.125 31.125 C0.95097656 32.11822266 0.77695313 33.11144531 0.59765625 34.13476562 C0.33662109 35.55112305 0.33662109 35.55112305 0.0703125 36.99609375 C-0.16534424 38.30791626 -0.16534424 38.30791626 -0.40576172 39.64624023 C-0.60186035 40.31985596 -0.79795898 40.99347168 -1 41.6875 C-5.56488093 43.96994047 -11.50593766 43.09511818 -16.25 41.625 C-20.57259982 39.62299622 -23.29048925 37.17593167 -25 32.6875 C-25.47137442 27.01019989 -25.15030162 21.42782729 -24.8125 15.75 C-24.73911981 14.19216925 -24.66813291 12.63422381 -24.59960938 11.07617188 C-24.42737486 7.27806171 -24.222591 3.48297829 -24 -0.3125 C-23.34 1.0075 -22.68 2.3275 -22 3.6875 C-21.236875 3.048125 -20.47375 2.40875 -19.6875 1.75 C-14.12679007 -2.51752157 -6.43136581 -2.58065309 0 0 Z M-23 18.6875 C-23 21.9875 -23 25.2875 -23 28.6875 C-21.4325 28.77 -19.865 28.8525 -18.25 28.9375 C-13.70896859 29.35962405 -12.02336968 30.19899652 -9 33.6875 C-6.78141747 33.55108623 -6.78141747 33.55108623 -5 32.6875 C-4.67 31.0375 -4.34 29.3875 -4 27.6875 C-4.556875 27.44515625 -5.11375 27.2028125 -5.6875 26.953125 C-10.87376863 24.67537189 -15.95149623 22.25603701 -21 19.6875 C-21.66 19.3575 -22.32 19.0275 -23 18.6875 Z " fill="#4387D6" transform="translate(100,14.3125)"/>
<path d="M0 0 C2.97 0 5.94 0 9 0 C9 0.33 9 0.66 9 1 C6.36 1 3.72 1 1 1 C1 4.63 1 8.26 1 12 C2.65 12 4.3 12 6 12 C5.4181676 19.14711654 4.33465406 26.09479725 2.9375 33.125 C2.75123047 34.08148438 2.56496094 35.03796875 2.37304688 36.0234375 C1.91941556 38.34975194 1.46029121 40.67499415 1 43 C-1.97 43 -4.94 43 -8 43 C-10.31 38.38 -12.62 33.76 -15 29 C-15.33 29 -15.66 29 -16 29 C-16.99 33.62 -17.98 38.24 -19 43 C-21.64 43 -24.28 43 -27 43 C-26.60351674 35.90431685 -25.76284426 28.9368906 -24.5625 21.9375 C-24.37917114 20.83063843 -24.37917114 20.83063843 -24.19213867 19.70141602 C-23.57107066 16.21108641 -22.99338201 13.99007302 -21 11 C-17.77734375 11.02734375 -17.77734375 11.02734375 -14 12 C-11.9828143 14.2620078 -10.81493556 16.82014111 -9.5625 19.5625 C-9.21251953 20.27341797 -8.86253906 20.98433594 -8.50195312 21.71679688 C-7.64465134 23.46663203 -6.81912299 25.23197089 -6 27 C-4.68 22.05 -3.36 17.1 -2 12 C-1.34 12 -0.68 12 0 12 C0 8.04 0 4.08 0 0 Z " fill="#1F5BB5" transform="translate(333,22)"/>
<path d="M0 0 C2.57870591 1.43430979 3.34269912 2.48335793 5 5 C5.33 5.33 5.66 5.66 6 6 C6.04063832 7.66617115 6.042721 9.33388095 6 11 C3.03 11 0.06 11 -3 11 C-3 10.34 -3 9.68 -3 9 C-4.43655854 8.91868537 -5.8744483 8.86066441 -7.3125 8.8125 C-8.11300781 8.77769531 -8.91351563 8.74289063 -9.73828125 8.70703125 C-12.0474088 8.82270944 -12.0474088 8.82270944 -13.73828125 10.26171875 C-15.89532143 13.23349238 -16.11272838 16.39269168 -16 20 C-15.10242444 22.14780077 -15.10242444 22.14780077 -13 23 C-8.92205575 23.42478586 -7.46923881 23.31282587 -4 21 C-6.64 20.67 -9.28 20.34 -12 20 C-11.67 17.69 -11.34 15.38 -11 13 C-5.39 13 0.22 13 6 13 C5.80876907 19.21500533 5.21450649 23.03862758 0.79296875 27.5546875 C-3.84940172 31.29690335 -8.28476265 32.27956056 -14.1875 31.9375 C-18.47308734 31.31869015 -21.08825604 30.36670396 -24 27 C-26.54823603 22.01935684 -26.30249557 17.3153312 -25 12 C-23.375 8.8125 -23.375 8.8125 -21 6 C-20.56171875 5.43925781 -20.1234375 4.87851562 -19.671875 4.30078125 C-14.32983876 -1.48642468 -7.40176721 -1.24718422 0 0 Z " fill="#1F58B0" transform="translate(363,34)"/>
<path d="M0 0 C4.27770721 0.83876612 7.01302778 1.5471523 9.9375 4.875 C12 8 12 8 12 12 C10.54207116 12.05399736 9.08357288 12.09279177 7.625 12.125 C6.81289063 12.14820313 6.00078125 12.17140625 5.1640625 12.1953125 C3 12 3 12 1 10 C-3.59770626 9.55336148 -3.59770626 9.55336148 -7.875 11 C-9.65940055 14.17226765 -10.11292422 17.37889653 -10 21 C-9.12129086 23.212981 -9.12129086 23.212981 -7 24 C-3.35265021 23.77669287 -1.61627165 23.61627165 1 21 C3.1640625 20.8046875 3.1640625 20.8046875 5.625 20.875 C6.85089844 20.90207031 6.85089844 20.90207031 8.1015625 20.9296875 C9.04128906 20.96449219 9.04128906 20.96449219 10 21 C9.13912298 25.31354337 7.38014495 27.13422493 4 30 C-1.76012708 33.38831005 -6.64196268 33.57334483 -13 32 C-16.37810256 30.09981731 -17.6215329 28.73973116 -19.375 25.3125 C-20.44460505 19.64359322 -20.00578249 14.97288104 -17.375 9.8125 C-11.57102904 2.93937649 -11.57102904 2.93937649 -8 1 C-5.02672734 0.79692183 -2.94150017 1.27752627 0 2 C0 1.34 0 0.68 0 0 Z " fill="#1F5AB3" transform="translate(284,33)"/>
<path d="M0 0 C3.42375 -0.020625 6.8475 -0.04125 10.375 -0.0625 C11.45313965 -0.071604 12.5312793 -0.08070801 13.64208984 -0.09008789 C14.48980957 -0.09258545 15.3375293 -0.09508301 16.2109375 -0.09765625 C17.51490479 -0.10551147 17.51490479 -0.10551147 18.84521484 -0.11352539 C21 0 21 0 23 1 C23 10.9 23 20.8 23 31 C22.67 31 22.34 31 22 31 C22 23.41 22 15.82 22 8 C18.04 8 14.08 8 10 8 C10 9.32 10 10.64 10 12 C12.64 12 15.28 12 18 12 C18 14.31 18 16.62 18 19 C15.03 19 12.06 19 9 19 C9 22.96 9 26.92 9 31 C6.03 31 3.06 31 0 31 C0 20.77 0 10.54 0 0 Z " fill="#3F7CC5" transform="translate(324,3)"/>
<path d="M0 0 C8.25 0 16.5 0 25 0 C25 2.64 25 5.28 25 8 C22.36 8 19.72 8 17 8 C17 15.59 17 23.18 17 31 C14.36 31 11.72 31 9 31 C9 23.41 9 15.82 9 8 C6.03 8 3.06 8 0 8 C0 5.36 0 2.72 0 0 Z " fill="#458ADD" transform="translate(206,3)"/>
<path d="M0 0 C12.33333333 0 24.66666667 0 37 0 C37 1.65 37 3.3 37 5 C37.99 5 38.98 5 40 5 C40.33 3.35 40.66 1.7 41 0 C42.32 0.33 43.64 0.66 45 1 C45.495 3.97 45.495 3.97 46 7 C45.16855469 6.98839844 44.33710937 6.97679688 43.48046875 6.96484375 C41.85044922 6.95130859 41.85044922 6.95130859 40.1875 6.9375 C38.56908203 6.92009766 38.56908203 6.92009766 36.91796875 6.90234375 C33.93487831 6.86375234 33.93487831 6.86375234 31 8 C30.01 7.67 29.02 7.34 28 7 C25.34306002 6.903384 22.71859145 6.86073272 20.0625 6.875 C19.34642578 6.87113281 18.63035156 6.86726563 17.89257812 6.86328125 C14.41888307 6.86971998 11.34799472 7.11257971 8 8 C7.34 7.67 6.68 7.34 6 7 C6 6.34 6 5.68 6 5 C5.01 5 4.02 5 3 5 C3 5.66 3 6.32 3 7 C2.01 7 1.02 7 0 7 C0 4.69 0 2.38 0 0 Z M8 3 C8 3.66 8 4.32 8 5 C8.66 5 9.32 5 10 5 C10 4.34 10 3.68 10 3 C9.34 3 8.68 3 8 3 Z " fill="#3D608A" transform="translate(21,61)"/>
<path d="M0 0 C3.3 0.33 6.6 0.66 10 1 C9.01 1.495 9.01 1.495 8 2 C7.60548128 3.99739029 7.60548128 3.99739029 7.50390625 6.3984375 C7.05683569 11.9146004 6.07182719 17.21389858 4.9375 22.625 C4.6580957 23.98818359 4.6580957 23.98818359 4.37304688 25.37890625 C3.91982704 27.5869003 3.46210307 29.79385124 3 32 C0.36 32 -2.28 32 -5 32 C-4.55699736 21.10213508 -2.26020384 10.63872691 0 0 Z " fill="#215DB6" transform="translate(300,33)"/>
<path d="M0 0 C2.69082872 0.17635452 5.32851446 0.61835921 8 1 C8 1.66 8 2.32 8 3 C7.34 3 6.68 3 6 3 C6 4.65 6 6.3 6 8 C5.34 8 4.68 8 4 8 C4 6.35 4 4.7 4 3 C3.34 3 2.68 3 2 3 C2 4.65 2 6.3 2 8 C1.40985107 7.99476318 0.81970215 7.98952637 0.21166992 7.98413086 C-2.46304255 7.96333953 -5.13773801 7.95033299 -7.8125 7.9375 C-9.2056543 7.92493164 -9.2056543 7.92493164 -10.62695312 7.91210938 C-11.51962891 7.90888672 -12.41230469 7.90566406 -13.33203125 7.90234375 C-14.15421143 7.89710693 -14.9763916 7.89187012 -15.82348633 7.88647461 C-18.18172596 7.91258476 -18.18172596 7.91258476 -21 9 C-21.99 8.34 -22.98 7.68 -24 7 C-24 5.68 -24 4.36 -24 3 C-24.66 3 -25.32 3 -26 3 C-26 4.65 -26 6.3 -26 8 C-26.66 8 -27.32 8 -28 8 C-28.33 6.68 -28.66 5.36 -29 4 C-29.103125 4.639375 -29.20625 5.27875 -29.3125 5.9375 C-29.539375 6.618125 -29.76625 7.29875 -30 8 C-30.99 8.33 -31.98 8.66 -33 9 C-33.66 8.67 -34.32 8.34 -35 8 C-35.6875 5 -35.6875 5 -36 2 C-35 1 -35 1 -31.78125 0.90234375 C-30.35413552 0.9093028 -28.9270406 0.92139733 -27.5 0.9375 C-26.37368164 0.94317993 -26.37368164 0.94317993 -25.22460938 0.94897461 C-21.99863192 0.96539947 -18.77277875 0.99353967 -15.546875 1.02050781 C-13.19792253 1.03850382 -10.84899019 1.05065423 -8.5 1.0625 C-7.39688477 1.07494751 -7.39688477 1.07494751 -6.27148438 1.08764648 C-4.51410095 1.09621603 -2.75659603 1.05329478 -1 1 C-0.67 0.67 -0.34 0.34 0 0 Z M-14 4 C-14.33 4.66 -14.66 5.32 -15 6 C-14.34 6 -13.68 6 -13 6 C-13.33 5.34 -13.66 4.68 -14 4 Z " fill="#3C5E87" transform="translate(105,60)"/>
<path d="M0 0 C1.39456452 0.00667256 2.78911118 0.01863093 4.18359375 0.03515625 C4.89451172 0.03966797 5.60542969 0.04417969 6.33789062 0.04882812 C8.09899388 0.06064761 9.86005411 0.07858362 11.62109375 0.09765625 C11.50699693 2.20244229 11.37944014 4.30650202 11.24609375 6.41015625 C11.17648438 7.58191406 11.106875 8.75367188 11.03515625 9.9609375 C10.62109375 13.09765625 10.62109375 13.09765625 8.62109375 16.09765625 C5.8359375 16.42578125 5.8359375 16.42578125 2.55859375 16.34765625 C1.47449219 16.3321875 0.39039063 16.31671875 -0.7265625 16.30078125 C-3.37890625 16.09765625 -3.37890625 16.09765625 -4.37890625 15.09765625 C-4.47799927 12.7660557 -4.50861129 10.43135683 -4.50390625 8.09765625 C-4.50648438 6.81890625 -4.5090625 5.54015625 -4.51171875 4.22265625 C-4.33758382 0.12536369 -4.33758382 0.12536369 0 0 Z " fill="#9CB6D5" transform="translate(174.37890625,3.90234375)"/>
<path d="M0 0 C2.64 0 5.28 0 8 0 C8 9.9 8 19.8 8 30 C5.36 30 2.72 30 0 30 C0 20.1 0 10.2 0 0 Z " fill="#4493F0" transform="translate(347,4)"/>
<path d="M0 0 C1.79244141 0.01740234 1.79244141 0.01740234 3.62109375 0.03515625 C5.41740234 0.04869141 5.41740234 0.04869141 7.25 0.0625 C8.17683594 0.07410156 9.10367188 0.08570313 10.05859375 0.09765625 C10.14013308 1.68012332 10.19802932 3.26381898 10.24609375 4.84765625 C10.29830078 6.17023437 10.29830078 6.17023437 10.3515625 7.51953125 C9.98970551 10.70387278 9.46549007 11.96696114 7.05859375 14.09765625 C3.921875 14.48828125 3.921875 14.48828125 0.37109375 14.34765625 C-1.39814453 14.29351562 -1.39814453 14.29351562 -3.203125 14.23828125 C-4.10675781 14.191875 -5.01039063 14.14546875 -5.94140625 14.09765625 C-6.13404079 9.28179286 -5.75502042 5.57835009 -3.94140625 1.09765625 C-2.94140625 0.09765625 -2.94140625 0.09765625 0 0 Z " fill="#ADCAED" transform="translate(167.94140625,35.90234375)"/>
<path d="M0 0 C0.02703381 1.93742341 0.04641125 3.87495479 0.0625 5.8125 C0.07410156 6.89144531 0.08570313 7.97039063 0.09765625 9.08203125 C0 12 0 12 -1 15 C-5.95 15 -10.9 15 -16 15 C-17.12383849 11.62848454 -17.16190374 10.31972498 -16 7 C-11.96551724 4 -11.96551724 4 -9 4 C-9 3.01 -9 2.02 -9 1 C-6.04335481 -0.4783226 -3.25770263 -0.06032783 0 0 Z " fill="#B1D0F4" transform="translate(160,51)"/>
<path d="M0 0 C0.99 0 1.98 0 3 0 C3 20.79 3 41.58 3 63 C1.515 63.495 1.515 63.495 0 64 C0 42.88 0 21.76 0 0 Z " fill="#305E94" transform="translate(194,4)"/>
<path d="M0 0 C1.27875 -0.061875 2.5575 -0.12375 3.875 -0.1875 C4.95394531 -0.23970703 4.95394531 -0.23970703 6.0546875 -0.29296875 C6.69664062 -0.19628906 7.33859375 -0.09960938 8 0 C10.30143236 3.45214853 10.13833854 4.23479324 9.625 8.1875 C9.45871094 9.53908203 9.45871094 9.53908203 9.2890625 10.91796875 C9.14597656 11.94857422 9.14597656 11.94857422 9 13 C1.25 13.125 1.25 13.125 -1 12 C-1.08159574 7.83861737 -0.98248524 4.0527516 0 0 Z " fill="#A9C9EF" transform="translate(156,21)"/>
<path d="M0 0 C6.6 0 13.2 0 20 0 C20 2.31 20 4.62 20 7 C18.14375 6.9690625 18.14375 6.9690625 16.25 6.9375 C13.30341276 6.92708803 10.84938113 7.23285893 8 8 C7.34 7.67 6.68 7.34 6 7 C6 6.34 6 5.68 6 5 C5.01 5 4.02 5 3 5 C3 5.66 3 6.32 3 7 C2.01 7 1.02 7 0 7 C0 4.69 0 2.38 0 0 Z M8 3 C8 3.66 8 4.32 8 5 C8.66 5 9.32 5 10 5 C10 4.34 10 3.68 10 3 C9.34 3 8.68 3 8 3 Z " fill="#3A5779" transform="translate(21,61)"/>
<path d="M0 0 C4.62 0 9.24 0 14 0 C14 1.98 14 3.96 14 6 C12 8 12 8 9.1796875 8.1953125 C8.08914062 8.17210937 6.99859375 8.14890625 5.875 8.125 C4.77929688 8.10695313 3.68359375 8.08890625 2.5546875 8.0703125 C1.71164063 8.04710937 0.86859375 8.02390625 0 8 C0 5.36 0 2.72 0 0 Z " fill="#ACC9EC" transform="translate(140,5)"/>
<path d="M0 0 C2.69082872 0.17635452 5.32851446 0.61835921 8 1 C8 1.66 8 2.32 8 3 C7.34 3 6.68 3 6 3 C6 4.65 6 6.3 6 8 C5.34 8 4.68 8 4 8 C4 6.35 4 4.7 4 3 C3.34 3 2.68 3 2 3 C2 4.65 2 6.3 2 8 C-1.96 8 -5.92 8 -10 8 C-10 5.69 -10 3.38 -10 1 C-9.36191406 1.01160156 -8.72382812 1.02320313 -8.06640625 1.03515625 C-7.24011719 1.04417969 -6.41382812 1.05320313 -5.5625 1.0625 C-4.32693359 1.07990234 -4.32693359 1.07990234 -3.06640625 1.09765625 C-1.00836062 1.23267348 -1.00836062 1.23267348 0 0 Z " fill="#3D5D84" transform="translate(105,60)"/>
<path d="M0 0 C4.62 0 9.24 0 14 0 C13 6 13 6 11 8 C8.90625 8.23046875 8.90625 8.23046875 6.5 8.1875 C5.30890625 8.17783203 5.30890625 8.17783203 4.09375 8.16796875 C2 8 2 8 0 7 C0 4.69 0 2.38 0 0 Z " fill="#AECCF0" transform="translate(110,5)"/>
<path d="M0 0 C1.79244141 0.01740234 1.79244141 0.01740234 3.62109375 0.03515625 C5.41740234 0.04869141 5.41740234 0.04869141 7.25 0.0625 C8.17683594 0.07410156 9.10367188 0.08570313 10.05859375 0.09765625 C10.05859375 2.07765625 10.05859375 4.05765625 10.05859375 6.09765625 C9.39859375 6.09765625 8.73859375 6.09765625 8.05859375 6.09765625 C8.05859375 4.77765625 8.05859375 3.45765625 8.05859375 2.09765625 C7.39859375 2.09765625 6.73859375 2.09765625 6.05859375 2.09765625 C6.05859375 3.74765625 6.05859375 5.39765625 6.05859375 7.09765625 C5.39859375 7.09765625 4.73859375 7.09765625 4.05859375 7.09765625 C3.72859375 5.77765625 3.39859375 4.45765625 3.05859375 3.09765625 C2.95546875 3.73703125 2.85234375 4.37640625 2.74609375 5.03515625 C2.51921875 5.71578125 2.29234375 6.39640625 2.05859375 7.09765625 C1.06859375 7.42765625 0.07859375 7.75765625 -0.94140625 8.09765625 C-1.60140625 7.76765625 -2.26140625 7.43765625 -2.94140625 7.09765625 C-3.62890625 4.09765625 -3.62890625 4.09765625 -3.94140625 1.09765625 C-2.94140625 0.09765625 -2.94140625 0.09765625 0 0 Z " fill="#426997" transform="translate(72.94140625,60.90234375)"/>
<path d="M0 0 C0.36738281 0.48082031 0.73476562 0.96164063 1.11328125 1.45703125 C3.74840443 3.61204917 5.82505636 3.50672346 9.1875 3.6875 C10.27417969 3.75324219 11.36085937 3.81898437 12.48046875 3.88671875 C13.72763672 3.94279297 13.72763672 3.94279297 15 4 C14.67 7.63 14.34 11.26 14 15 C13.67 15 13.34 15 13 15 C13 12.03 13 9.06 13 6 C8.38 6.33 3.76 6.66 -1 7 C-1 6.34 -1 5.68 -1 5 C-4.3 5 -7.6 5 -11 5 C-10.67 4.01 -10.34 3.02 -10 2 C-6.7 2.66 -3.4 3.32 0 4 C0 2.68 0 1.36 0 0 Z " fill="#7E92A9" transform="translate(165,30)"/>
<path d="M0 0 C0.9590625 0.2784375 0.9590625 0.2784375 1.9375 0.5625 C2.9584375 0.7790625 2.9584375 0.7790625 4 1 C4.33 0.67 4.66 0.34 5 0 C6.66617115 -0.04063832 8.33388095 -0.042721 10 0 C10 1.98 10 3.96 10 6 C6.78548731 7.60725635 3.56387464 7.05748185 0 7 C0 4.69 0 2.38 0 0 Z " fill="#426996" transform="translate(41,61)"/>
<path d="M0 0 C4.95 0 9.9 0 15 0 C14.67 3.3 14.34 6.6 14 10 C8.06 10 2.12 10 -4 10 C-2.68 6.7 -1.36 3.4 0 0 Z M0 1 C0 3.31 0 5.62 0 8 C3.44353616 9.72176808 7.23420727 9.50348511 11 9 C13.19887923 7.40330166 13.19887923 7.40330166 14 5 C14 3.68 14 2.36 14 1 C9.38 1 4.76 1 0 1 Z " fill="#3A547A" transform="translate(110,4)"/>
<path d="M0 0 C7.42857143 -0.28571429 7.42857143 -0.28571429 11 2 C10.5152439 8.54420732 10.5152439 8.54420732 8.375 10.4375 C5.20862399 11.18743116 2.24002269 11.12461626 -1 11 C-1 10.67 -1 10.34 -1 10 C0.98 10 2.96 10 5 10 C5.33 7.03 5.66 4.06 6 1 C4.02 1 2.04 1 0 1 C0 0.67 0 0.34 0 0 Z " fill="#343E4A" transform="translate(115,21)"/>
<path d="M0 0 C4.95 0 9.9 0 15 0 C16 3 16 3 14 10 C8.39 10 2.78 10 -3 10 C-3.33 10.99 -3.66 11.98 -4 13 C-4 11.68 -4 10.36 -4 9 C-3.34 9 -2.68 9 -2 9 C-1.67 7.02 -1.34 5.04 -1 3 C-0.67 3 -0.34 3 0 3 C0 4.98 0 6.96 0 9 C5.94 8.505 5.94 8.505 12 8 C12.66 5.69 13.32 3.38 14 1 C9.38 1 4.76 1 0 1 C0 0.67 0 0.34 0 0 Z " fill="#324D73" transform="translate(140,4)"/>
<path d="M0 0 C0.33 0 0.66 0 1 0 C1 1.98 1 3.96 1 6 C5.29 6 9.58 6 14 6 C14.33 4.68 14.66 3.36 15 2 C16 5 16 5 15 8 C10.05 8 5.1 8 0 8 C-1.09658936 4.71023192 -0.79953138 3.28696233 0 0 Z " fill="#5F6D7D" transform="translate(144,58)"/>
<path d="M0 0 C1.32 0.33 2.64 0.66 4 1 C4.33 2.98 4.66 4.96 5 7 C2.525 6.01 2.525 6.01 0 5 C0 3.35 0 1.7 0 0 Z " fill="#4776AE" transform="translate(62,61)"/>
<path d="M0 0 C0.55107422 0.72123047 0.55107422 0.72123047 1.11328125 1.45703125 C3.74840443 3.61204917 5.82505636 3.50672346 9.1875 3.6875 C10.27417969 3.75324219 11.36085937 3.81898437 12.48046875 3.88671875 C13.72763672 3.94279297 13.72763672 3.94279297 15 4 C15 5.65 15 7.3 15 9 C14.67 7.68 14.34 6.36 14 5 C9.38 5 4.76 5 0 5 C0 3.35 0 1.7 0 0 Z " fill="#282A2C" transform="translate(165,30)"/>
<path d="M0 0 C3 1 3 1 5 4 C5 4.99 5 5.98 5 7 C3.35 7 1.7 7 0 7 C0 4.69 0 2.38 0 0 Z " fill="#477EBE" transform="translate(41,61)"/>
<path d="M0 0 C1.32 0 2.64 0 4 0 C4 1.32 4 2.64 4 4 C3.34 4 2.68 4 2 4 C2 4.66 2 5.32 2 6 C2.66 6.33 3.32 6.66 4 7 C2.68 7 1.36 7 0 7 C0 4.69 0 2.38 0 0 Z " fill="#487AB4" transform="translate(95,61)"/>
<path d="M0 0 C0.66 0 1.32 0 2 0 C2 2.31 2 4.62 2 7 C0.35 7 -1.3 7 -3 7 C-3 5.35 -3 3.7 -3 2 C-2.34 2 -1.68 2 -1 2 C-0.67 2.66 -0.34 3.32 0 4 C0 2.68 0 1.36 0 0 Z " fill="#334963" transform="translate(39,61)"/>
<path d="M0 0 C1.65 0 3.3 0 5 0 C4.01 0.495 4.01 0.495 3 1 C3.33 1.99 3.66 2.98 4 4 C3.34 4 2.68 4 2 4 C2 4.99 2 5.98 2 7 C1.34 7 0.68 7 0 7 C0 4.69 0 2.38 0 0 Z " fill="#4976AC" transform="translate(21,61)"/>
<path d="M0 0 C1.65 0 3.3 0 5 0 C5 0.66 5 1.32 5 2 C4.34 2 3.68 2 3 2 C3 3.65 3 5.3 3 7 C2.34 7 1.68 7 1 7 C0.67 4.69 0.34 2.38 0 0 Z " fill="#4A79B1" transform="translate(108,61)"/>
<path d="M0 0 C2.475 0.495 2.475 0.495 5 1 C5 1.99 5 2.98 5 4 C4.34 4 3.68 4 3 4 C3 3.34 3 2.68 3 2 C2.34 2 1.68 2 1 2 C1 3.65 1 5.3 1 7 C0.67 7 0.34 7 0 7 C0 4.69 0 2.38 0 0 Z " fill="#4E89CE" transform="translate(35,61)"/>
</svg>
