<?xml version="1.0" encoding="UTF-8"?>
<svg version="1.1" xmlns="http://www.w3.org/2000/svg" width="413" height="414">
<path d="M0 0 C1.34741738 0.64769938 2.67265457 1.34286919 3.9765625 2.07421875 C4.72566895 2.49203613 5.47477539 2.90985352 6.24658203 3.34033203 C7.42389893 4.00718018 7.42389893 4.00718018 8.625 4.6875 C9.82745361 5.36208252 9.82745361 5.36208252 11.05419922 6.05029297 C16.76379445 9.26590929 22.42550722 12.55445924 28 16 C26.73172274 19.80483177 25.56878831 20.10984818 22.12890625 22.046875 C20.57478027 22.93173584 20.57478027 22.93173584 18.98925781 23.83447266 C17.85842773 24.46659668 16.72759766 25.0987207 15.5625 25.75 C14.3845368 26.41747967 13.2071358 27.0859524 12.03027344 27.75537109 C9.57919536 29.14847813 7.12573646 30.53724638 4.67041016 31.92285156 C-0.99026147 35.12115432 -6.61942956 38.37409426 -12.25 41.625 C-13.313396 42.23706299 -14.37679199 42.84912598 -15.47241211 43.47973633 C-20.8202729 46.56276481 -26.14986258 49.67282973 -31.453125 52.83203125 C-32.47245117 53.43901855 -33.49177734 54.04600586 -34.54199219 54.67138672 C-36.47219544 55.82383722 -38.40004851 56.98023579 -40.32519531 58.14111328 C-41.17694336 58.65013184 -42.02869141 59.15915039 -42.90625 59.68359375 C-43.65197266 60.13275146 -44.39769531 60.58190918 -45.16601562 61.04467773 C-47 62 -47 62 -49 62 C-49.31492749 69.36491154 -49.48652267 76.72349722 -49.56152344 84.09472656 C-49.60355323 86.59776247 -49.67766748 89.10048245 -49.78515625 91.6015625 C-50.90403954 105.0101118 -50.90403954 105.0101118 -46.33898926 117.04470825 C-42.09580852 120.44887866 -37.32388267 122.37332741 -32.23016357 124.17102051 C-29.23493906 125.28438265 -26.61878281 126.8340498 -23.90625 128.51171875 C-23.01534668 129.03386963 -22.12444336 129.55602051 -21.20654297 130.09399414 C-20.31338379 130.61985107 -19.42022461 131.14570801 -18.5 131.6875 C-8.89937591 137.31494274 0.72367524 142.90144867 10.38378906 148.42626953 C15.75017971 151.5049343 21.06751816 154.63697108 26.3203125 157.90625 C27.32046387 158.52169678 28.32061523 159.13714355 29.35107422 159.77124023 C31.23583518 160.93584283 33.11058651 162.11685844 34.97314453 163.31665039 C35.81216309 163.83219482 36.65118164 164.34773926 37.515625 164.87890625 C38.60278809 165.56835327 38.60278809 165.56835327 39.71191406 166.27172852 C43.05246078 167.33498618 44.82959051 166.37635053 48 165 C49.93895394 163.96635849 51.84901313 162.87712445 53.73046875 161.7421875 C54.78041016 161.11699219 55.83035156 160.49179688 56.91210938 159.84765625 C59.10775549 158.52529336 61.30306448 157.20237056 63.49804688 155.87890625 C64.54412109 155.25628906 65.59019531 154.63367188 66.66796875 153.9921875 C67.61953857 153.41839355 68.5711084 152.84459961 69.55151367 152.25341797 C72 151 72 151 75 151 C75.22324847 156.01679391 75.38612008 161.03067531 75.49438477 166.05126953 C75.53952418 167.75686004 75.60085724 169.46210452 75.67895508 171.16650391 C76.30682894 185.22595386 76.30682894 185.22595386 73.33447266 189.26098633 C70.96480165 190.86226479 68.64205483 191.91085312 66 193 C64.22050664 194.05906877 62.4550161 195.14196475 60.703125 196.24609375 C58.88741945 197.31331061 57.06969198 198.37709462 55.25 199.4375 C54.33089844 199.99115234 53.41179687 200.54480469 52.46484375 201.11523438 C51.57410156 201.63279297 50.68335938 202.15035156 49.765625 202.68359375 C48.57114746 203.38826782 48.57114746 203.38826782 47.35253906 204.10717773 C44.39056195 205.23129047 42.99438515 204.9679558 40 204 C37.6418457 202.83935547 37.6418457 202.83935547 35.17578125 201.3671875 C34.24330566 200.81619385 33.31083008 200.2652002 32.35009766 199.69750977 C31.34769043 199.09608154 30.3452832 198.49465332 29.3125 197.875 C27.13974019 196.58913841 24.96654843 195.30400648 22.79296875 194.01953125 C21.67067871 193.3538916 20.54838867 192.68825195 19.39208984 192.00244141 C13.99305852 188.81524874 8.5594716 185.68875325 3.125 182.5625 C0.94005632 181.30346844 -1.24483925 180.04435339 -3.4296875 178.78515625 C-5.05729004 177.84760498 -5.05729004 177.84760498 -6.71777344 176.89111328 C-12.14659941 173.76319852 -17.57319975 170.63142753 -23 167.5 C-29.58172877 163.70260037 -36.16364072 159.90551907 -42.74609375 156.109375 C-43.86693359 155.46291016 -44.98777344 154.81644531 -46.14257812 154.15039062 C-48.23104731 152.94583786 -50.31958107 151.74139704 -52.40820312 150.53710938 C-54.3697099 149.40571951 -56.32011426 148.25483974 -58.2583313 147.08399963 C-61.01000661 145.47960677 -63.80718799 144.20106867 -66.7383728 142.95750427 C-79.41075569 137.22308356 -79.41075569 137.22308356 -82.06363869 131.84287643 C-83.67108044 125.65487005 -83.1827105 119.34371097 -82.85546875 113.01953125 C-82.81997762 110.99513935 -82.79295704 108.97058289 -82.77400208 106.94596863 C-82.70184245 101.64614881 -82.51566453 96.35641165 -82.30462646 91.06054688 C-82.10934837 85.64526849 -82.0232986 80.22833982 -81.92773438 74.81054688 C-81.7246695 64.20262783 -81.40095985 53.6021556 -81 43 C-80.28686142 42.60175522 -79.57372284 42.20351044 -78.838974 41.79319763 C-76.15304822 40.29273511 -73.46755344 38.79150471 -70.78233337 37.28977966 C-69.06464459 36.32944804 -67.3464755 35.36997567 -65.6282959 34.41052246 C-59.56972613 31.02149267 -53.53330056 27.60406967 -47.5625 24.0625 C-46.87711151 23.6560878 -46.19172302 23.2496756 -45.48556519 22.83094788 C-44.86255524 22.46134445 -44.23954529 22.09174103 -43.59765625 21.7109375 C-37.59213225 18.15667575 -31.54443472 14.67498793 -25.5 11.1875 C-24.40115479 10.55271729 -23.30230957 9.91793457 -22.17016602 9.26391602 C-20.07965045 8.05851769 -17.98657311 6.85754834 -15.890625 5.66162109 C-14.03564083 4.59531854 -12.19075771 3.51113266 -10.359375 2.40478516 C-9.57046875 1.93733887 -8.7815625 1.46989258 -7.96875 0.98828125 C-7.29263672 0.57747314 -6.61652344 0.16666504 -5.91992188 -0.2565918 C-3.47170021 -1.20456166 -2.43399896 -0.91727957 0 0 Z " fill="#FFFFFF" transform="translate(163,89)"/>
<path d="M0 0 C2.98001099 1.03023319 5.51413602 2.36588779 8.24291992 3.94970703 C9.35658936 4.59133789 10.47025879 5.23296875 11.61767578 5.89404297 C12.82224901 6.59738258 14.02675577 7.30083604 15.23120117 8.00439453 C16.48415467 8.72934091 17.73749733 9.45361505 18.99121094 10.17724609 C21.57535882 11.67023523 24.15718366 13.16712338 26.73706055 14.66748047 C31.40946216 17.38431655 36.09241607 20.0826795 40.77539062 22.78125 C42.80857375 23.95337674 44.84104977 25.1267316 46.87255859 26.30175781 C57.07384191 32.20106886 67.31151723 38.03243228 77.54370117 43.87939453 C77.54370117 73.90939453 77.54370117 103.93939453 77.54370117 134.87939453 C49.54370117 150.87939453 49.54370117 150.87939453 45.54370117 152.87939453 C45.54370117 123.17939453 45.54370117 93.47939453 45.54370117 62.87939453 C43.89370117 62.21939453 42.24370117 61.55939453 40.54370117 60.87939453 C38.88777778 60.01216591 37.24759866 59.11440826 35.62182617 58.19189453 C34.21888306 57.39730835 34.21888306 57.39730835 32.78759766 56.58666992 C31.79961182 56.02326904 30.81162598 55.45986816 29.79370117 54.87939453 C28.26628296 54.01785767 28.26628296 54.01785767 26.70800781 53.13891602 C21.90387997 50.41797072 17.13966904 47.6602675 12.46166992 44.72705078 C11.69886719 44.25460938 10.93606445 43.78216797 10.15014648 43.29541016 C8.73862666 42.41456078 7.33744547 41.51684872 5.94897461 40.60009766 C3.84211578 39.229427 3.84211578 39.229427 0.54370117 37.87939453 C-3.62860754 38.92079374 -7.12037972 40.66501791 -10.81567383 42.82861328 C-11.83532227 43.42158203 -12.8549707 44.01455078 -13.90551758 44.62548828 C-14.99477539 45.26615234 -16.0840332 45.90681641 -17.20629883 46.56689453 C-18.36350855 47.24196092 -19.5210674 47.91642915 -20.67895508 48.59033203 C-23.08200465 49.98955258 -25.48353802 51.39132389 -27.8840332 52.79492188 C-33.39416774 56.01388865 -38.92644126 59.19447657 -44.45629883 62.37939453 C-46.59960347 63.61624292 -48.74283221 64.85322285 -50.88598633 66.09033203 C-54.85301867 68.37923439 -58.82161084 70.66538264 -62.79229736 72.94793701 C-64.57379461 73.97215118 -66.35494205 74.99697104 -68.13598633 76.02197266 C-70.36706508 77.30572829 -72.59879456 78.58835392 -74.83129883 79.86962891 C-76.82612658 81.01805074 -78.81034503 82.18517438 -80.78149414 83.3737793 C-83.45629883 84.87939453 -83.45629883 84.87939453 -85.93579102 85.77368164 C-88.59603781 86.85082773 -89.7842638 87.51947892 -91.45629883 89.87939453 C-92.60516052 95.98604237 -92.53088959 101.99790156 -92.45629883 108.19189453 C-92.46439308 109.90350405 -92.47607248 111.61510062 -92.49145508 113.32666016 C-92.52126329 117.51189318 -92.50191605 121.69433143 -92.45629883 125.87939453 C-98.69819871 123.53501899 -104.34548896 120.14032995 -110.14379883 116.87939453 C-111.87339844 115.91646484 -111.87339844 115.91646484 -113.63793945 114.93408203 C-114.73686523 114.31791016 -115.83579102 113.70173828 -116.96801758 113.06689453 C-117.9730835 112.50357422 -118.97814941 111.94025391 -120.01367188 111.35986328 C-122.45629883 109.87939453 -122.45629883 109.87939453 -124.45629883 107.87939453 C-125.0959039 102.7185924 -125.21172268 97.55615966 -125.32128906 92.35986328 C-125.3693569 90.63265805 -125.4442692 88.90597712 -125.546875 87.18115234 C-126.21011084 75.90722508 -126.21011084 75.90722508 -124.45629883 70.87939453 C-121.18696536 67.34664748 -117.68555114 65.5426351 -113.27658081 63.68151855 C-110.37165062 62.40143431 -107.70027189 60.7482421 -104.97583008 59.12548828 C-102.7413018 57.85393608 -100.50558497 56.58447071 -98.26879883 55.31689453 C-95.79812286 53.91173976 -93.32841777 52.5048818 -90.85864258 51.09814453 C-90.23854309 50.74521835 -89.6184436 50.39229218 -88.97955322 50.02867126 C-82.7499183 46.48155415 -76.53876462 42.90265282 -70.33129883 39.31689453 C-69.26903076 38.70330078 -68.2067627 38.08970703 -67.11230469 37.45751953 C-64.9690896 36.21935477 -62.82594165 34.98107378 -60.68286133 33.74267578 C-57.42105876 31.85904403 -54.15768039 29.97817132 -50.89379883 28.09814453 C-39.96233826 21.80048751 -29.04134078 15.48560151 -18.14379883 9.12939453 C-16.64018799 8.25238892 -16.64018799 8.25238892 -15.10620117 7.35766602 C-9.95011986 4.38550235 -9.95011986 4.38550235 -4.96728516 1.14013672 C-2.45629883 -0.12060547 -2.45629883 -0.12060547 0 0 Z " fill="#FFFFFF" transform="translate(253.456298828125,88.12060546875)"/>
<path d="M0 0 C3.30859375 1.68359375 3.30859375 1.68359375 6.18559265 4.1139679 C8.78540197 6.22508369 11.16471849 7.43651646 14.30793762 8.57756042 C19.70481925 10.72104716 24.26929006 13.07906167 27.80859375 17.80859375 C31.02633599 27.24301319 30.16815895 37.95520178 29.93006873 47.80412698 C29.85048418 51.79166803 29.86687127 55.77896212 29.87031555 59.76713562 C29.86191242 66.45714145 29.78413153 73.1434507 29.66088867 79.83227539 C29.51908327 87.55692928 29.47191565 95.27755111 29.47850865 103.00341254 C29.4845935 111.24866597 29.42213068 119.4923735 29.33948922 127.73715949 C29.32034324 130.1055726 29.31392396 132.47373502 29.31033897 134.8422184 C29.30127585 138.56609385 29.24618502 142.28660444 29.15584373 146.00936699 C29.11716046 148.02117283 29.1220503 150.03366948 29.12832642 152.0458374 C28.85287382 160.68575515 28.85287382 160.68575515 25.85833168 163.90556908 C23.56409485 165.46346786 21.32874793 166.66044145 18.80859375 167.80859375 C17.47878767 168.55919656 16.15351237 169.31797248 14.8359375 170.08984375 C13.47430005 170.83244911 12.11093955 171.57190168 10.74609375 172.30859375 C4.54607149 175.70562371 -1.60176477 179.17880734 -7.70385742 182.74902344 C-9.70421697 183.9188014 -11.708338 185.08216952 -13.71606445 186.23925781 C-18.66171243 189.09978772 -23.55171787 192.00993879 -28.34130859 195.12385559 C-30.63355755 196.60680483 -32.94810696 198.05261394 -35.26586914 199.49526978 C-36.90299337 200.53421629 -38.50782477 201.62350259 -40.11132812 202.71362305 C-43.18913295 204.61371145 -45.66574742 205.98563512 -49.19140625 206.80859375 C-53.77433074 205.65101451 -57.29905007 203.43411138 -61.19140625 200.80859375 C-62.51169464 200.0507068 -63.83651848 199.30060177 -65.16796875 198.5625 C-66.38632222 197.83571935 -67.60241214 197.10513297 -68.81640625 196.37109375 C-70.27272851 195.50271612 -71.72981292 194.63561589 -73.1875 193.76953125 C-73.97753418 193.29999023 -74.76756836 192.83044922 -75.58154297 192.34667969 C-80.65692868 189.35557305 -85.77142597 186.43193078 -90.87890625 183.49609375 C-99.52830626 178.51632843 -108.1577748 173.50482075 -116.75390625 168.43359375 C-118.16385864 167.60347778 -118.16385864 167.60347778 -119.60229492 166.7565918 C-120.88583862 165.9972937 -120.88583862 165.9972937 -122.1953125 165.22265625 C-122.94627197 164.77873535 -123.69723145 164.33481445 -124.47094727 163.87744141 C-126.19140625 162.80859375 -126.19140625 162.80859375 -127.19140625 161.80859375 C-127.27999271 159.0696529 -127.30664104 156.35606105 -127.2890625 153.6171875 C-127.28764755 152.79734879 -127.2862326 151.97751007 -127.28477478 151.13282776 C-127.27915914 148.50387993 -127.26660404 145.87501602 -127.25390625 143.24609375 C-127.24889326 141.46810018 -127.24433001 139.69010529 -127.24023438 137.91210938 C-127.22918464 133.5442383 -127.21190956 129.17643027 -127.19140625 124.80859375 C-119.99110595 128.28574528 -113.07226364 132.1150334 -106.19140625 136.18359375 C-104.07588363 137.42639901 -101.95998463 138.66856377 -99.84375 139.91015625 C-98.75433105 140.54985352 -97.66491211 141.18955078 -96.54248047 141.84863281 C-90.9619895 145.1125248 -85.35742617 148.33445379 -79.75390625 151.55859375 C-69.86623118 157.25250034 -60.01014678 162.99666517 -50.19140625 168.80859375 C-49.47082031 168.39351562 -48.75023437 167.9784375 -48.0078125 167.55078125 C-38.64804745 162.17987165 -29.23660201 156.90359714 -19.81274414 151.64599609 C-18.77110107 151.06414551 -17.72945801 150.48229492 -16.65625 149.8828125 C-15.72417725 149.36291748 -14.79210449 148.84302246 -13.83178711 148.30737305 C-12.02426351 147.2813548 -10.23901894 146.21535241 -8.47485352 145.11645508 C-6.19140625 143.80859375 -6.19140625 143.80859375 -4.19140625 143.80859375 C-3.76461301 130.10007507 -3.46957292 116.39548583 -3.33906555 102.68076134 C-3.27438103 96.31040823 -3.16571601 89.94736321 -2.95361328 83.58007812 C-0.4309834 57.31311614 -0.4309834 57.31311614 -7.54931641 33.15490723 C-13.09555717 27.95815497 -19.18289971 25.42735999 -26.47851562 23.57501221 C-30.00994569 22.57734826 -32.33074111 21.06099246 -35.19140625 18.80859375 C-9.83553632 -1.94079145 -9.83553632 -1.94079145 0 0 Z " fill="#FFFFFF" transform="translate(256.19140625,141.19140625)"/>
<path d="M0 0 C1.93060065 0.97126764 3.83446236 1.99636818 5.71875 3.0546875 C6.81574219 3.66957031 7.91273438 4.28445312 9.04296875 4.91796875 C10.18378906 5.56378906 11.32460937 6.20960938 12.5 6.875 C13.64082031 7.51308594 14.78164062 8.15117187 15.95703125 8.80859375 C22.22812206 12.33838517 22.22812206 12.33838517 25 14 C25.76989258 14.39050537 26.53978516 14.78101074 27.33300781 15.18334961 C30.04512112 18.13894937 29.48937818 21.58946618 29.390625 25.38671875 C29.38496521 26.20372757 29.37930542 27.02073639 29.37347412 27.86250305 C29.35108697 30.47143203 29.30088846 33.07898636 29.25 35.6875 C29.22993792 37.45636037 29.21168664 39.22524227 29.1953125 40.99414062 C29.1512148 45.32995656 29.08217294 49.66474525 29 54 C25.40837534 56.08357088 21.81539697 58.16478238 18.22119141 60.24389648 C17.00077209 60.95029365 15.78071337 61.65731422 14.56103516 62.36499023 C12.79946724 63.38693008 11.03657899 64.40655925 9.2734375 65.42578125 C8.21560059 66.03848877 7.15776367 66.65119629 6.06787109 67.2824707 C4.5492749 68.13264771 4.5492749 68.13264771 3 69 C2.01684814 69.63341309 1.03369629 70.26682617 0.02075195 70.91943359 C-3 72 -3 72 -6.20385742 70.90356445 C-7.32638916 70.230271 -8.4489209 69.55697754 -9.60546875 68.86328125 C-10.2113533 68.50864304 -10.81723785 68.15400482 -11.44148254 67.78862 C-13.37100082 66.65202332 -15.27852314 65.48320118 -17.1875 64.3125 C-18.48242509 63.54273268 -19.77863871 62.77512855 -21.07617188 62.00976562 C-25.43983124 59.42358147 -29.7786929 56.81420473 -34 54 C-34.42879615 51.25838462 -34.6598426 48.75027896 -34.75 45.9921875 C-34.77658691 45.19273712 -34.80317383 44.39328674 -34.83056641 43.5696106 C-34.87648375 41.87345615 -34.91283827 40.17702026 -34.94042969 38.48046875 C-34.97991824 36.75333014 -35.04797447 35.0265924 -35.14550781 33.30175781 C-35.78581212 21.95486858 -35.78581212 21.95486858 -34 17 C-30.20332888 13.02818952 -26.00028681 11.14247165 -21 9 C-19.3647204 8.03069501 -17.7456555 7.03293955 -16.15234375 5.99609375 C-14.74800563 5.14222545 -13.3430782 4.28932543 -11.9375 3.4375 C-11.21884766 2.98826172 -10.50019531 2.53902344 -9.75976562 2.07617188 C-9.06431641 1.65787109 -8.36886719 1.23957031 -7.65234375 0.80859375 C-7.04382568 0.43532959 -6.43530762 0.06206543 -5.80834961 -0.32250977 C-3.39228209 -1.22767885 -2.40847283 -0.90942564 0 0 Z " fill="#FFFFFF" transform="translate(209,169)"/>
<path d="M0 0 C1.65 0 3.3 0 5 0 C5.33 0.99 5.66 1.98 6 3 C7.73912655 3.83824695 7.73912655 3.83824695 9.8125 4.375 C13.82236915 5.74755378 15.74500739 7.30181211 18 11 C19.66140023 15.15350057 19.71134087 19.89690526 18.28125 24.125 C16.31964183 28.42788245 14.57878989 31.21315517 10 33 C7.1875 33.1875 7.1875 33.1875 5 33 C5 33.99 5 34.98 5 36 C3.35 36 1.7 36 0 36 C0 35.01 0 34.02 0 33 C-1.051875 32.938125 -2.10375 32.87625 -3.1875 32.8125 C-7.85425264 31.81794616 -9.23434828 30.8719124 -12 27 C-14.27586305 21.04534463 -14.48260994 15.85458767 -12.12109375 9.9140625 C-10.33609834 6.86650936 -8.1215578 5.52892627 -5 4 C-4.236875 3.814375 -3.47375 3.62875 -2.6875 3.4375 C-2.130625 3.293125 -1.57375 3.14875 -1 3 C-0.67 2.01 -0.34 1.02 0 0 Z M-5.125 9.875 C-8.28489795 13.45621768 -8.33743197 16.10067796 -8.28515625 20.73828125 C-7.85864722 24.12114051 -6.50954038 25.76929744 -4 28 C-2.68 28.33 -1.36 28.66 0 29 C0 22.07 0 15.14 0 8 C-3.09740541 7.66918918 -3.09740541 7.66918918 -5.125 9.875 Z M5 8 C5 14.93 5 21.86 5 29 C8.9593714 28.32837909 8.9593714 28.32837909 11.25 26.0625 C13.73184738 21.71926708 13.94634167 17.89210524 13 13 C10.89400826 9.80671116 10.89400826 9.80671116 8 8 C7.01 8 6.02 8 5 8 Z " fill="#FFFFFF" transform="translate(201,378)"/>
<path d="M0 0 C1.32 0.66 2.64 1.32 4 2 C3.46323088 7.0261109 1.05581499 10.62239409 -1.5625 14.8125 C-1.98724609 15.50537109 -2.41199219 16.19824219 -2.84960938 16.91210938 C-3.89309456 18.61216951 -4.94565296 20.30665476 -6 22 C-4.22778159 21.12780874 -2.45732345 20.25204085 -0.6875 19.375 C0.40304687 18.83617188 1.49359375 18.29734375 2.6171875 17.7421875 C6.69732183 15.6408712 10.61941977 13.3111263 14.52734375 10.90625 C17 10 17 10 19.81640625 10.84375 C20.53699219 11.2253125 21.25757813 11.606875 22 12 C20.71939982 16.18761663 19.13653086 19.82056379 16.9609375 23.6171875 C16.09082031 25.14472656 16.09082031 25.14472656 15.203125 26.703125 C14.59984375 27.74984375 13.9965625 28.7965625 13.375 29.875 C12.45847656 31.47988281 12.45847656 31.47988281 11.5234375 33.1171875 C10.0203689 35.74755755 8.51243714 38.37500926 7 41 C5.35 40.67 3.7 40.34 2 40 C2.53676912 34.9738891 4.94418501 31.37760591 7.5625 27.1875 C7.98724609 26.49462891 8.41199219 25.80175781 8.84960938 25.08789062 C9.89309456 23.38783049 10.94565296 21.69334524 12 20 C9.1600582 20.94664727 7.06167787 22.07549378 4.5078125 23.609375 C3.63769531 24.11597656 2.76757812 24.62257813 1.87109375 25.14453125 C0.03931718 26.2154561 -1.78371157 27.30148493 -3.59765625 28.40234375 C-6.04779459 29.81017804 -8.32604237 31.08341444 -11 32 C-14.1328125 30.828125 -14.1328125 30.828125 -16 29 C-11.19565741 18.97421755 -5.83993004 9.45512483 0 0 Z " fill="#FFFFFF" transform="translate(296,20)"/>
<path d="M0 0 C10.43200716 2.37435514 20.74293703 4.94401293 31 8 C31.625 9.875 31.625 9.875 32 12 C31.34 12.66 30.68 13.32 30 14 C24.06 12.35 18.12 10.7 12 9 C11.67 9.33 11.34 9.66 11 10 C11.42410156 10.4125 11.84820313 10.825 12.28515625 11.25 C16.21637023 15.12073376 19.92579138 19.11493778 23.51953125 23.30078125 C24.63171172 24.57729445 25.80283014 25.80283014 27 27 C26.625 30.125 26.625 30.125 26 33 C15.06184114 31.51425477 4.55504489 28.12491651 -6 25 C-5.67 23.35 -5.34 21.7 -5 20 C2.40774509 21.39304941 9.70170537 23.11899623 17 25 C16.35933594 24.3709375 15.71867187 23.741875 15.05859375 23.09375 C10.94818194 19.02621879 6.84823335 14.94856988 2.9375 10.6875 C2.38964844 10.09324219 1.84179688 9.49898437 1.27734375 8.88671875 C-0.27941999 6.58727873 -0.70860893 4.74804192 -1 2 C-0.67 1.34 -0.34 0.68 0 0 Z " fill="#FFFFFF" transform="translate(10,140)"/>
<path d="M0 0 C1.14425631 4.07375028 2.28344567 8.14887304 3.41796875 12.2253418 C3.80460005 13.61179775 4.19261125 14.99786966 4.58203125 16.38354492 C5.14166005 18.3757949 5.69630551 20.369375 6.25 22.36328125 C6.58515625 23.56251221 6.9203125 24.76174316 7.265625 25.99731445 C8 29 8 29 8 32 C5.525 32.495 5.525 32.495 3 33 C1.02 26.07 -0.96 19.14 -3 12 C-3.47050781 13.62550781 -3.94101562 15.25101562 -4.42578125 16.92578125 C-5.05418098 19.05483707 -5.68311505 21.18373522 -6.3125 23.3125 C-6.62123047 24.38435547 -6.92996094 25.45621094 -7.24804688 26.56054688 C-7.55419922 27.58857422 -7.86035156 28.61660156 -8.17578125 29.67578125 C-8.45333252 30.62364502 -8.73088379 31.57150879 -9.0168457 32.5480957 C-10.03660451 35.09128858 -10.72677379 36.4649532 -13 38 C-15.1875 37.6875 -15.1875 37.6875 -17 37 C-18.14259358 32.90747898 -19.28183875 28.81404538 -20.41796875 24.71972656 C-20.80506605 23.32656598 -21.19308264 21.93366049 -21.58203125 20.54101562 C-22.14043285 18.54102621 -22.69553894 16.54014742 -23.25 14.5390625 C-23.58515625 13.33459473 -23.9203125 12.13012695 -24.265625 10.88916016 C-25 8 -25 8 -25 6 C-23.35 5.67 -21.7 5.34 -20 5 C-17.70438191 11.59379663 -15.77910928 18.24947898 -14 25 C-12.47457413 22.14350911 -11.4391957 19.38409178 -10.5625 16.26953125 C-10.30726563 15.38458984 -10.05203125 14.49964844 -9.7890625 13.58789062 C-9.25993755 11.7267853 -8.7339302 9.86479098 -8.2109375 8.00195312 C-7.95570313 7.12087891 -7.70046875 6.23980469 -7.4375 5.33203125 C-7.20933594 4.52483643 -6.98117187 3.7176416 -6.74609375 2.88598633 C-5.37419964 -0.58190699 -3.64739164 0 0 0 Z " fill="#FFFFFF" transform="translate(264,371)"/>
<path d="M0 0 C1.2065625 0.0309375 1.2065625 0.0309375 2.4375 0.0625 C3.57999828 4.29749198 4.71924652 8.53334057 5.85546875 12.77001953 C6.2425928 14.21166689 6.63060962 15.65307482 7.01953125 17.09423828 C7.57786246 19.16376699 8.13299498 21.2341308 8.6875 23.3046875 C9.19023437 25.17423096 9.19023437 25.17423096 9.703125 27.08154297 C10.4375 30.0625 10.4375 30.0625 10.4375 32.0625 C7.9625 32.5575 7.9625 32.5575 5.4375 33.0625 C3.4575 26.1325 1.4775 19.2025 -0.5625 12.0625 C-3.2025 20.3125 -5.8425 28.5625 -8.5625 37.0625 C-11.5325 37.5575 -11.5325 37.5575 -14.5625 38.0625 C-15.732721 34.0091865 -16.88995874 29.95245641 -18.03540039 25.89208984 C-18.42672195 24.51185089 -18.82154971 23.13260092 -19.2199707 21.75439453 C-19.79266259 19.77106458 -20.3525745 17.78449826 -20.91015625 15.796875 C-21.25054932 14.60288086 -21.59094238 13.40888672 -21.94165039 12.17871094 C-22.52333017 9.2591039 -22.60696747 7.79646018 -21.5625 5.0625 C-20.2425 5.0625 -18.9225 5.0625 -17.5625 5.0625 C-16.7227972 7.97746831 -15.89053997 10.8942186 -15.0625 13.8125 C-14.82402344 14.6375 -14.58554688 15.4625 -14.33984375 16.3125 C-14.11425781 17.11171875 -13.88867188 17.9109375 -13.65625 18.734375 C-13.44677734 19.4675293 -13.23730469 20.20068359 -13.02148438 20.95605469 C-12.5625 23.0625 -12.5625 23.0625 -12.5625 27.0625 C-11.9025 27.0625 -11.2425 27.0625 -10.5625 27.0625 C-10.459375 26.11117188 -10.35625 25.15984375 -10.25 24.1796875 C-9.55925699 19.35178302 -8.06271801 14.81553104 -6.5625 10.1875 C-6.28921875 9.32125 -6.0159375 8.455 -5.734375 7.5625 C-3.34233765 0.08152043 -3.34233765 0.08152043 0 0 Z " fill="#FFFFFF" transform="translate(163.5625,3.9375)"/>
<path d="M0 0 C0 1.65 0 3.3 0 5 C-10.395 5.99 -10.395 5.99 -21 7 C-19.411875 7.88042969 -17.82375 8.76085937 -16.1875 9.66796875 C-14.12444049 10.84016165 -12.06197059 12.01339267 -10 13.1875 C-8.42605469 14.0547168 -8.42605469 14.0547168 -6.8203125 14.93945312 C-5.82773437 15.50986328 -4.83515625 16.08027344 -3.8125 16.66796875 C-2.42998047 17.44563599 -2.42998047 17.44563599 -1.01953125 18.23901367 C1 20 1 20 1.30078125 22.70825195 C1.20152344 23.46452881 1.10226562 24.22080566 1 25 C-2.47782583 26.15927528 -5.18803257 26.11313066 -8.85546875 26.09765625 C-9.84792351 26.09553383 -9.84792351 26.09553383 -10.86042786 26.09336853 C-12.96949828 26.08777996 -15.07846177 26.07522965 -17.1875 26.0625 C-18.61913909 26.05748352 -20.05077985 26.05292087 -21.48242188 26.04882812 C-24.98831588 26.0378143 -28.4941475 26.02055755 -32 26 C-32 24.35 -32 22.7 -32 21 C-21.11 20.505 -21.11 20.505 -10 20 C-11.40894531 19.22914063 -12.81789063 18.45828125 -14.26953125 17.6640625 C-16.11722651 16.65111282 -17.96488062 15.63808808 -19.8125 14.625 C-20.74126953 14.11710938 -21.67003906 13.60921875 -22.62695312 13.0859375 C-23.51962891 12.59609375 -24.41230469 12.10625 -25.33203125 11.6015625 C-26.15421143 11.15119629 -26.9763916 10.70083008 -27.82348633 10.23681641 C-29.59282762 9.23137804 -31.30672656 8.12884896 -33 7 C-33.1875 3.875 -33.1875 3.875 -33 1 C-29.37516606 0.8295902 -25.75011226 0.66437396 -22.125 0.5 C-21.11179687 0.45230469 -20.09859375 0.40460938 -19.0546875 0.35546875 C-12.69773104 0.0702207 -6.36317946 -0.06350831 0 0 Z " fill="#FFFFFF" transform="translate(412,187)"/>
<path d="M0 0 C5.25588683 1.80201834 8.76933896 4.15400844 11.875 8.8125 C13.26909132 12.7624254 13.20834106 14.99737024 12 19 C9.37139473 21.07521469 7.16969389 21.94343537 4 23 C3.9175 24.0725 3.835 25.145 3.75 26.25 C3 30 3 30 1.5 32.4375 C-2.31880967 34.82425604 -5.62969985 34.96003315 -10 34 C-14.65569013 31.50300357 -17.96090797 28.28828937 -21 24 C-20.43152344 23.3709375 -19.86304688 22.741875 -19.27734375 22.09375 C-12.72626762 14.83178915 -6.22449745 7.5448454 0 0 Z M2 6 C0.30911778 7.97956942 -1.35830472 9.97945196 -3 12 C-1.77992056 14.6905528 -1.77992056 14.6905528 0 17 C1.99958364 17.04080783 4.00045254 17.04254356 6 17 C6.66 15.35 7.32 13.7 8 12 C6.35830472 9.97945196 4.69088222 7.97956942 3 6 C2.67 6 2.34 6 2 6 Z M-8 17 C-9.58455866 18.78723941 -9.58455866 18.78723941 -11.125 21 C-11.93324219 22.11375 -11.93324219 22.11375 -12.7578125 23.25 C-13.16773438 23.8275 -13.57765625 24.405 -14 25 C-12.14685968 27.05169107 -10.5322574 28.7252865 -8.0625 30 C-4.83230791 30 -3.29697077 28.10555654 -1 26 C-1.47645208 21.71193127 -2.65902484 19.73352513 -6 17 C-6.66 17 -7.32 17 -8 17 Z " fill="#FFFFFF" transform="translate(335,46)"/>
<path d="M0 0 C3.86474354 2.45938225 6.28441109 4.35323328 7.75 8.75 C8.47239428 16.69633712 7.36654802 21.95178513 2.8125 28.5625 C0.20608223 31.32688248 -1.83760204 32.54956069 -5.6171875 33.0859375 C-12.47412389 33.19274336 -15.8267827 31.70104939 -21.0625 27.1875 C-23.87200745 23.78651729 -23.58017518 19.63622786 -23.53125 15.453125 C-22.93604603 9.7325535 -20.78544205 5.24799224 -16.6875 1.25 C-11.30439728 -2.06267859 -5.77898578 -2.22268684 0 0 Z M-13.25 5.75 C-16.93876461 10.03694266 -18.53013644 14.13606576 -18.25 19.75 C-16.99782339 23.43696445 -15.88579299 25.23132677 -12.875 27.6875 C-9.68822469 28.97738525 -8.45462203 28.95173326 -5.25 27.75 C-0.96876658 25.20164677 0.81127315 22.453506 2.3046875 17.8359375 C3.02632698 14.45562624 2.7448275 12.04536611 1.75 8.75 C-0.38411554 6.09677528 -2.16208945 4.31150222 -5.1875 2.75 C-8.53196297 2.75 -10.46528655 3.95153923 -13.25 5.75 Z " fill="#FFFFFF" transform="translate(158.25,372.25)"/>
<path d="M0 0 C2.16754211 3.78303537 4.32167153 7.57329273 6.46362305 11.37084961 C7.19434262 12.66198774 7.92870488 13.95107128 8.66674805 15.23803711 C9.72625897 17.08701548 10.77250174 18.94295791 11.81640625 20.80078125 C12.45006104 21.91622314 13.08371582 23.03166504 13.73657227 24.1809082 C15 27 15 27 14 30 C12.68 30.33 11.36 30.66 10 31 C8.02 27.37 6.04 23.74 4 20 C0.02152201 21.46149913 0.02152201 21.46149913 -0.77734375 23.734375 C-1.06283718 26.63939584 -0.84661035 29.34576082 -0.5625 32.25 C-0.46066406 33.32765625 -0.35882813 34.4053125 -0.25390625 35.515625 C-0.17011719 36.33546875 -0.08632813 37.1553125 0 38 C-1.65 38.66 -3.3 39.32 -5 40 C-6.32594359 34.03325384 -6.0884587 28.07416385 -6 22 C-7.6396875 21.9071875 -7.6396875 21.9071875 -9.3125 21.8125 C-13 21 -13 21 -15 18.875 C-16.3273098 15.05898433 -16.10850305 12.87976069 -15 9 C-11.69137546 4.68876197 -5.74931255 0 0 0 Z M-4 6 C-8.17429447 8.3435125 -8.17429447 8.3435125 -11.0625 12 C-11.12945159 14.11294324 -11.12945159 14.11294324 -9.9375 16.25 C-8.05783836 18.28377913 -8.05783836 18.28377913 -5 18.375 C-1.82297795 18.2049729 -1.82297795 18.2049729 1 16 C0.49701212 11.59885603 -1.08772731 9.28804981 -4 6 Z " fill="#FFFFFF" transform="translate(301,353)"/>
<path d="M0 0 C1.65 0 3.3 0 5 0 C4.4618756 5.20186922 3.69880437 8.90358688 2 14 C6.29 14.99 10.58 15.98 15 17 C16.32 13.04 17.64 9.08 19 5 C21.475 5.495 21.475 5.495 24 6 C23.29304559 12.8604449 21.33617314 19.32410188 19.4375 25.9375 C19.10814453 27.09830078 18.77878906 28.25910156 18.43945312 29.45507812 C17.6303404 32.30456206 16.81708013 35.15279247 16 38 C14.02 37.67 12.04 37.34 10 37 C10.47770523 35.06213915 10.95721571 33.12472326 11.4375 31.1875 C11.70433594 30.10855469 11.97117187 29.02960937 12.24609375 27.91796875 C12.76077412 25.9259157 13.34937175 23.95188476 14 22 C13.31292969 21.86722656 12.62585938 21.73445313 11.91796875 21.59765625 C11.01691406 21.42105469 10.11585938 21.24445312 9.1875 21.0625 C7.84751953 20.80146484 7.84751953 20.80146484 6.48046875 20.53515625 C4 20 4 20 1 19 C0.73445312 19.92683594 0.46890625 20.85367187 0.1953125 21.80859375 C-0.15789062 23.00613281 -0.51109375 24.20367188 -0.875 25.4375 C-1.22304687 26.63246094 -1.57109375 27.82742187 -1.9296875 29.05859375 C-3 32 -3 32 -5 33 C-7.125 32.5625 -7.125 32.5625 -9 32 C-6.42486227 21.18154427 -3.43213257 10.57772005 0 0 Z " fill="#FFFFFF" transform="translate(251,5)"/>
<path d="M0 0 C11.38923617 -0.11033706 22.64570132 0.04956543 34 1 C33.67 2.65 33.34 4.3 33 6 C28.05 6 23.1 6 18 6 C18 10.62 18 15.24 18 20 C22.95 20.33 27.9 20.66 33 21 C33 22.65 33 24.3 33 26 C21.95471804 26.13379211 11.01919215 25.76370639 0 25 C0 23.35 0 21.7 0 20 C4.29 20 8.58 20 13 20 C12.979375 18.246875 12.95875 16.49375 12.9375 14.6875 C12.89868405 11.38814456 12.95023036 9.14930893 14 6 C7.07 5.505 7.07 5.505 0 5 C0 3.35 0 1.7 0 0 Z " fill="#FFFFFF" transform="translate(0,187)"/>
<path d="M0 0 C-0.67581523 6.08233706 -1.73638028 12.01314152 -3 18 C-1.96746094 18.07089844 -0.93492188 18.14179687 0.12890625 18.21484375 C4.60097654 19.12189332 6.53572827 20.58070008 9.9375 23.5625 C10.89527344 24.38878906 11.85304687 25.21507813 12.83984375 26.06640625 C13.55269531 26.70449219 14.26554687 27.34257813 15 28 C14 31 14 31 12.24609375 31.93359375 C8.83882095 32.03433051 7.54338431 30.29873624 5.0625 28.0625 C1.61357518 24.82637955 1.61357518 24.82637955 -2.81640625 23.74609375 C-3.89728516 23.87177734 -3.89728516 23.87177734 -5 24 C-5 27.77942968 -3.61925936 29.74614274 -1.77734375 32.96484375 C-0.82790766 35.45055332 -0.91935229 36.58289907 -2 39 C-3.485 39.495 -3.485 39.495 -5 40 C-9.3101769 32.45240135 -13.61315216 24.8989528 -17.625 17.1875 C-18.11226563 16.25292969 -18.59953125 15.31835938 -19.1015625 14.35546875 C-20 12 -20 12 -19 9 C-17.68 8.67 -16.36 8.34 -15 8 C-13.02 11.63 -11.04 15.26 -9 19 C-8.82984375 17.87980469 -8.6596875 16.75960937 -8.484375 15.60546875 C-8.24047123 14.13266519 -7.99563045 12.66001658 -7.75 11.1875 C-7.64042969 10.44951172 -7.53085938 9.71152344 -7.41796875 8.95117188 C-6.84380806 5.61197416 -6.43251246 3.43847227 -4.015625 0.98828125 C-2 0 -2 0 0 0 Z " fill="#FFFFFF" transform="translate(123,17)"/>
<path d="M0 0 C0.495 2.97 0.495 2.97 1 6 C-2.3 8.64 -5.6 11.28 -9 14 C-6.25906335 15.8272911 -3.86174676 16.93698178 -0.8125 18.125 C0.08855469 18.47820312 0.98960938 18.83140625 1.91796875 19.1953125 C2.60503906 19.46085937 3.29210938 19.72640625 4 20 C4 21.65 4 23.3 4 25 C-0.74375733 24.19072017 -4.93036189 22.53147719 -9.37890625 20.7421875 C-12.29173533 19.91739238 -13.2766124 19.73613663 -16 21 C-17.96237459 22.64468358 -19.79488166 24.28376199 -21.625 26.0625 C-26.74437244 31 -26.74437244 31 -29 31 C-29.5625 27.9375 -29.5625 27.9375 -29 24 C-26.27517826 21.24862054 -23.23618944 19.11251255 -20 17 C-20.85464844 16.70867187 -21.70929687 16.41734375 -22.58984375 16.1171875 C-23.69457031 15.70726562 -24.79929687 15.29734375 -25.9375 14.875 C-27.03964844 14.48054687 -28.14179688 14.08609375 -29.27734375 13.6796875 C-32 12 -32 12 -32.87890625 8.8203125 C-32.91886719 7.88960937 -32.95882812 6.95890625 -33 6 C-28.45964555 6.76213093 -24.67173693 8.3674942 -20.5 10.2578125 C-17.50009579 11.14840906 -15.94906167 11.01329186 -13 10 C-11.06833607 8.51215727 -11.06833607 8.51215727 -9.4375 6.625 C-3.17979979 0 -3.17979979 0 0 0 Z " fill="#FFFFFF" transform="translate(34,226)"/>
<path d="M0 0 C4.12109696 1.83244348 6.18364012 4.52206479 8.75 8.125 C9.16121094 8.68832031 9.57242188 9.25164062 9.99609375 9.83203125 C11.00476085 11.21601634 12.00339286 12.60730541 13 14 C11.68 14.99 10.36 15.98 9 17 C7.82739389 15.71372289 6.6620717 14.42080217 5.5 13.125 C4.8503125 12.40570313 4.200625 11.68640625 3.53125 10.9453125 C2 9 2 9 2 7 C-0.31 8.65 -2.62 10.3 -5 12 C-4.55527344 12.53109375 -4.11054688 13.0621875 -3.65234375 13.609375 C-3.08644531 14.31578125 -2.52054687 15.0221875 -1.9375 15.75 C-1.36902344 16.44609375 -0.80054688 17.1421875 -0.21484375 17.859375 C1 20 1 20 0.68359375 22.265625 C0.45800781 22.83796875 0.23242188 23.4103125 0 24 C-3.59905908 23.44449305 -4.99909799 22.25112752 -7.25 19.4375 C-7.77078125 18.79683594 -8.2915625 18.15617187 -8.828125 17.49609375 C-9.21484375 17.00238281 -9.6015625 16.50867188 -10 16 C-13.465 18.475 -13.465 18.475 -17 21 C-16.566875 21.60328125 -16.13375 22.2065625 -15.6875 22.828125 C-15.130625 23.62734375 -14.57375 24.4265625 -14 25.25 C-13.1646875 26.43335938 -13.1646875 26.43335938 -12.3125 27.640625 C-11 30 -11 30 -11 34 C-12.32 34 -13.64 34 -15 34 C-16.976369 31.92909616 -18.62517952 29.9720591 -20.3125 27.6875 C-20.77978516 27.09259766 -21.24707031 26.49769531 -21.72851562 25.88476562 C-23.05078125 24.13671875 -23.05078125 24.13671875 -25 21 C-23.90611916 17.71835749 -23.36094828 17.24961864 -20.68359375 15.29296875 C-20.00103516 14.78830078 -19.31847656 14.28363281 -18.61523438 13.76367188 C-17.89658203 13.24353516 -17.17792969 12.72339844 -16.4375 12.1875 C-15.74591797 11.67896484 -15.05433594 11.17042969 -14.34179688 10.64648438 C-12.94445092 9.61898581 -11.54519421 8.59408073 -10.14404297 7.57177734 C-6.74088206 5.07695271 -3.37018777 2.53910501 0 0 Z " fill="#FFFFFF" transform="translate(364,75)"/>
<path d="M0 0 C1.32 0.33 2.64 0.66 4 1 C3.49954354 5.3372893 0.74057577 7.77982347 -2 11 C-2.33 11.99 -2.66 12.98 -3 14 C-0.66785852 15.20628008 1.49642139 16.1654738 4 17 C5.98 14.36 7.96 11.72 10 9 C11.32 9.66 12.64 10.32 14 11 C12.6302836 14.99500618 10.74277578 17.80009492 8 21 C10.31232422 23.56249975 10.31232422 23.56249975 13 26 C13.99 26 14.98 26 16 26 C17.6877081 24.23598598 17.6877081 24.23598598 19.1875 22 C19.98220703 20.88625 19.98220703 20.88625 20.79296875 19.75 C21.19128906 19.1725 21.58960938 18.595 22 18 C23.65 18.33 25.3 18.66 27 19 C25.55049595 23.35647645 23.32252888 26.31757289 20.375 29.8125 C19.14910156 31.27623047 19.14910156 31.27623047 17.8984375 32.76953125 C17.27195312 33.50558594 16.64546875 34.24164063 16 35 C11.97589865 33.27112683 8.71201148 30.58005162 5.3125 27.875 C4.69616699 27.38797607 4.07983398 26.90095215 3.44482422 26.39916992 C-1.52864674 22.44025588 -6.32888614 18.31274798 -11 14 C-7.46386286 9.21224044 -3.85516296 4.53548584 0 0 Z " fill="#FFFFFF" transform="translate(52,68)"/>
<path d="M0 0 C1.796875 0.03515625 1.796875 0.03515625 4 1 C5.29029101 3.50659744 6.29819657 5.80790021 7.25 8.4375 C7.518125 9.13166016 7.78625 9.82582031 8.0625 10.54101562 C10 15.64672353 10 15.64672353 10 18 C5.76811796 19.73715911 1.53230447 21.46420008 -2.70751953 23.18188477 C-4.15006013 23.76796766 -5.59147563 24.35682761 -7.03173828 24.94848633 C-9.09900917 25.79716292 -11.17008572 26.6358562 -13.2421875 27.47265625 C-13.88807831 27.74030289 -14.53396912 28.00794952 -15.19943237 28.28370667 C-16.77714634 28.91514947 -18.38691482 29.46534351 -20 30 C-23.27580028 28.36209986 -23.86530313 24.82626007 -25.125 21.5625 C-25.40214844 20.86833984 -25.67929687 20.17417969 -25.96484375 19.45898438 C-28 14.28086515 -28 14.28086515 -28 12 C-26.35 11.67 -24.7 11.34 -23 11 C-22.3291288 12.6232687 -21.66342971 14.24867578 -21 15.875 C-20.62875 16.77992188 -20.2575 17.68484375 -19.875 18.6171875 C-19 21 -19 21 -19 23 C-16.69 22.01 -14.38 21.02 -12 20 C-12.74250597 15.91621717 -13.82923301 11.98060777 -15 8 C-13.35 7.67 -11.7 7.34 -10 7 C-8.68 10.3 -7.36 13.6 -6 17 C-3.03 16.34 -0.06 15.68 3 15 C2.69964844 14.25234375 2.39929688 13.5046875 2.08984375 12.734375 C1.70957031 11.74953125 1.32929687 10.7646875 0.9375 9.75 C0.55464844 8.77546875 0.17179687 7.8009375 -0.22265625 6.796875 C-1.01113787 3.95992605 -1.02437812 2.70590448 0 0 Z " fill="#FFFFFF" transform="translate(39,262)"/>
<path d="M0 0 C7.28599085 1.37130335 13.747381 3.73838441 20.5625 6.625 C21.57119141 7.04523438 22.57988281 7.46546875 23.61914062 7.8984375 C26.08227192 8.92571501 28.54236676 9.95965415 31 11 C30.25277074 15.04824205 29.06222436 18.5214765 27.4375 22.3125 C26.75494141 23.91544922 26.75494141 23.91544922 26.05859375 25.55078125 C25.53458984 26.76314453 25.53458984 26.76314453 25 28 C23.68 28 22.36 28 21 28 C21.54855348 23.428721 22.41744803 19.32564205 24 15 C21.36 14.01 18.72 13.02 16 12 C15.896875 12.70125 15.79375 13.4025 15.6875 14.125 C14.90640997 17.39137647 13.57941257 20.0471852 12 23 C10.68 22.67 9.36 22.34 8 22 C8.99 18.04 9.98 14.08 11 10 C6.545 8.02 6.545 8.02 2 6 C1.8453125 7.2684375 1.8453125 7.2684375 1.6875 8.5625 C0.9171146 12.41442701 -0.36274514 15.44075031 -2 19 C-3.65 18.67 -5.3 18.34 -7 18 C-5.06296536 11.79268446 -2.723818 5.90173799 0 0 Z " fill="#FFFFFF" transform="translate(371,261)"/>
<path d="M0 0 C3.68052346 5.44191684 5.92130303 10.08051259 5.546875 16.7578125 C4.93690957 19.25867075 4.29117918 20.36101497 2.4375 22.125 C-1.5617887 24.3064302 -3.51507823 24.720791 -8 24 C-12.01057061 22.03255027 -13.62265266 20.89191189 -15.375 16.75 C-15.58125 15.8425 -15.7875 14.935 -16 14 C-16.68707031 14.3609375 -17.37414062 14.721875 -18.08203125 15.09375 C-18.98308594 15.5578125 -19.88414062 16.021875 -20.8125 16.5 C-21.70582031 16.9640625 -22.59914063 17.428125 -23.51953125 17.90625 C-26 19 -26 19 -29 19 C-29.33 17.35 -29.66 15.7 -30 14 C-4.30964467 0 -4.30964467 0 0 0 Z M-6.140625 7.6796875 C-7.18476563 8.27136719 -7.18476563 8.27136719 -8.25 8.875 C-8.95640625 9.26429687 -9.6628125 9.65359375 -10.390625 10.0546875 C-11.18726563 10.52261719 -11.18726563 10.52261719 -12 11 C-11.67226629 14.03153686 -11.35865103 15.61573103 -9.25 17.875 C-7.03631565 19.21165213 -7.03631565 19.21165213 -4.4375 18.875 C-1.75680172 17.91269805 -0.50746683 17.42869656 1 15 C1.08223366 11.91004903 1.08223366 11.91004903 0 9 C-2.35533715 7.29122599 -3.32136518 6.78452106 -6.140625 7.6796875 Z " fill="#FFFFFF" transform="translate(388,107)"/>
<path d="M0 0 C5.99218191 1.19020954 11.30550808 4.54487602 16.6875 7.3125 C18.43643555 8.18551758 18.43643555 8.18551758 20.22070312 9.07617188 C21.32736328 9.64529297 22.43402344 10.21441406 23.57421875 10.80078125 C24.59088623 11.31809814 25.60755371 11.83541504 26.6550293 12.3684082 C29 14 29 14 29.90161133 16.07495117 C30 18 30 18 29 20 C25.98782888 19.35550393 23.48344164 18.34977818 20.75 16.9375 C20.04359375 16.57527344 19.3371875 16.21304688 18.609375 15.83984375 C18.07828125 15.56269531 17.5471875 15.28554687 17 15 C16.75765625 15.61488281 16.5153125 16.22976562 16.265625 16.86328125 C12.74784705 25.34653806 12.74784705 25.34653806 9 27 C4.01507427 27.44864332 1.00413898 26.33554079 -3.375 24 C-4.43460938 23.443125 -5.49421875 22.88625 -6.5859375 22.3125 C-7.38257812 21.879375 -8.17921875 21.44625 -9 21 C-8.67 19.02 -8.34 17.04 -8 15 C-5.23658597 16.05659948 -2.70648905 17.16589749 -0.125 18.625 C3.47511658 20.20905129 6.10833954 20.23349963 10 20 C10.33 17.36 10.66 14.72 11 12 C7.04 9.69 3.08 7.38 -1 5 C-0.67 3.35 -0.34 1.7 0 0 Z " fill="#FFFFFF" transform="translate(28,100)"/>
<path d="M0 0 C0 1.32 0 2.64 0 4 C-1.7578125 4.94401042 -3.515625 5.88802083 -5.2734375 6.83203125 C-7.30502365 8.04763493 -7.30502365 8.04763493 -9 11 C-9.4673854 15.75175157 -9.4911613 18.03586856 -7.3125 22.3125 C-4.92678077 25.08509262 -3.39840792 26.65644338 0 28 C6.11104978 28 8.76820526 26.03496707 13 22 C13.66 21.34 14.32 20.68 15 20 C15.99 20.66 16.98 21.32 18 22 C16.62523555 27.19355461 13.25658407 30.00427491 9 33 C4.92683502 34.35772166 1.2588436 34.51865848 -3 34 C-8.22522754 31.38738623 -12.36911872 27.26176255 -15 22 C-15.74042756 15.9078745 -16.0314177 10.5581636 -12.3125 5.4375 C-8.81972087 1.49271416 -5.49271346 -2.23777215 0 0 Z " fill="#FFFFFF" transform="translate(88,40)"/>
<path d="M0 0 C3.41339471 1.87467938 5.57134539 4.04451808 7.75 7.3125 C6.43 8.3025 5.11 9.2925 3.75 10.3125 C1.50390625 8.40820312 1.50390625 8.40820312 -0.7421875 6.50390625 C-3.45892568 4.3572608 -5.16782091 4.15249162 -8.5625 4.375 C-12.32528868 4.85973928 -13.21256289 5.28052247 -16.25 7.875 C-18.72992103 12.13736427 -19.25 14.3907666 -19.25 19.3125 C-17.59507862 24.39547281 -13.61264866 26.06232326 -9.11328125 28.39453125 C-8.19095703 28.84892578 -8.19095703 28.84892578 -7.25 29.3125 C-7.58 30.6325 -7.91 31.9525 -8.25 33.3125 C-15.08307722 32.66173074 -19.78985818 29.43340357 -24.25 24.3125 C-25.91881717 19.3060485 -26.34634876 13.98285985 -24.30859375 9.01953125 C-18.80269856 -0.17997387 -10.27728838 -4.76405144 0 0 Z " fill="#FFFFFF" transform="translate(118.25,354.6875)"/>
<path d="M0 0 C1.98 0 3.96 0 6 0 C6.79556657 1.70652065 7.5862638 3.4153117 8.375 5.125 C8.81585938 6.07632812 9.25671875 7.02765625 9.7109375 8.0078125 C10.97371399 10.93898458 11.99072431 13.97217292 13 17 C15.64 11.72 18.28 6.44 21 1 C22.65 1 24.3 1 26 1 C25.07931982 6.49737713 22.79274246 10.92899825 20.3125 15.875 C19.89033203 16.74769531 19.46816406 17.62039062 19.03320312 18.51953125 C16.39539592 23.81106004 13.59031877 29.13388019 9 33 C5.125 33.9375 5.125 33.9375 2 34 C1.67 32.35 1.34 30.7 1 29 C2.134375 28.566875 3.26875 28.13375 4.4375 27.6875 C5.613125 27.130625 6.78875 26.57375 8 26 C9.24452234 22.26643298 8.57603411 21.2638654 7.12890625 17.67578125 C6.71962891 16.64775391 6.31035156 15.61972656 5.88867188 14.56054688 C5.45103516 13.48869141 5.01339844 12.41683594 4.5625 11.3125 C4.12873047 10.22904297 3.69496094 9.14558594 3.24804688 8.02929688 C2.17371584 5.34937221 1.09075147 2.67327405 0 0 Z " fill="#FFFFFF" transform="translate(207,0)"/>
<path d="M0 0 C4.44579394 3.46771927 6.64166093 6.63167576 7.5859375 12.11328125 C7.84177343 14.55755157 8.02619937 16.98230437 8.125 19.4375 C6.475 19.4375 4.825 19.4375 3.125 19.4375 C3.02703125 18.84582031 2.9290625 18.25414062 2.828125 17.64453125 C1.89173341 12.69618603 1.13156663 8.81145084 -2.875 5.4375 C-8.85682365 3.86849708 -12.36822982 4.30619931 -17.875 7.4375 C-20.02869759 9.31330113 -20.75555379 10.50312239 -21.1171875 13.33203125 C-21.2488367 17.27419329 -20.91589092 19.99349658 -18.875 23.4375 C-18.875 24.4275 -18.875 25.4175 -18.875 26.4375 C-20.195 26.7675 -21.515 27.0975 -22.875 27.4375 C-26.49646354 21.32628027 -27.89526368 16.55476109 -26.875 9.4375 C-24.85380968 4.78876226 -21.84996768 1.3779608 -17.25 -0.8125 C-11.4138179 -2.10942936 -5.50079513 -2.7563124 0 0 Z " fill="#FFFFFF" transform="translate(400.875,147.5625)"/>
<path d="M0 0 C5.63812354 1.49692628 9.91260199 4.34490263 14.6875 7.5625 C16.18942992 8.5667641 17.69326012 9.5681936 19.19921875 10.56640625 C19.85752686 11.00927979 20.51583496 11.45215332 21.1940918 11.90844727 C23.11740746 13.16141688 23.11740746 13.16141688 26 14 C26.2475 13.21625 26.495 12.4325 26.75 11.625 C28 9 28 9 30 7.625 C32 7 32 7 34 8 C33.36208296 11.2118012 32.22006369 13.5539205 30.49609375 16.328125 C30.00302734 17.12734375 29.50996094 17.9265625 29.00195312 18.75 C28.22754883 19.9875 28.22754883 19.9875 27.4375 21.25 C26.91736328 22.09046875 26.39722656 22.9309375 25.86132812 23.796875 C24.57891379 25.86756237 23.29168194 27.93508572 22 30 C20.35 29.34 18.7 28.68 17 28 C18.98 23.545 18.98 23.545 21 19 C9.615 12.07 9.615 12.07 -2 5 C-1.34 3.35 -0.68 1.7 0 0 Z " fill="#FFFFFF" transform="translate(354,296)"/>
<path d="M0 0 C0.66 1.65 1.32 3.3 2 5 C-5.59 9.95 -13.18 14.9 -21 20 C-19.68 22.31 -18.36 24.62 -17 27 C-17.33 27.99 -17.66 28.98 -18 30 C-18.99 30.33 -19.98 30.66 -21 31 C-23.17403798 27.71314634 -25.33795794 24.41975432 -27.5 21.125 C-28.12003906 20.18785156 -28.74007813 19.25070312 -29.37890625 18.28515625 C-29.96542969 17.38925781 -30.55195313 16.49335938 -31.15625 15.5703125 C-31.97319336 14.32918701 -31.97319336 14.32918701 -32.80664062 13.06298828 C-34 11 -34 11 -34 9 C-32.35 8.67 -30.7 8.34 -29 8 C-27.02 10.97 -27.02 10.97 -25 14 C-20.27031178 12.39300169 -16.46296739 9.79450896 -12.375 7 C-11.70726563 6.54882812 -11.03953125 6.09765625 -10.3515625 5.6328125 C-9.11233138 4.79509226 -7.8743805 3.95547254 -6.63818359 3.11328125 C-2.05701754 0 -2.05701754 0 0 0 Z " fill="#FFFFFF" transform="translate(60,298)"/>
<path d="M0 0 C2.475 0.495 2.475 0.495 5 1 C3.68 8.92 2.36 16.84 1 25 C-0.65 25 -2.3 25 -4 25 C-4 21.7 -4 18.4 -4 15 C-12.91 13.35 -21.82 11.7 -31 10 C-30.67 8.35 -30.34 6.7 -30 5 C-20.47850555 5.52296087 -11.32509434 7.1184137 -2 9 C-1.34 6.03 -0.68 3.06 0 0 Z " fill="#FFFFFF" transform="translate(407,230)"/>
</svg>
