<?xml version="1.0" encoding="UTF-8"?>
<svg version="1.1" xmlns="http://www.w3.org/2000/svg" width="293" height="70">
<path d="M0 0 C2.94067557 2.13198979 3.79710709 3.25605932 4.75 6.75 C4.87375 7.86375 4.87375 7.86375 5 9 C1.7 9.33 -1.6 9.66 -5 10 C-0.545 11.98 -0.545 11.98 4 14 C4.4125 12.783125 4.825 11.56625 5.25 10.3125 C6.90501539 5.9224357 8.86842458 2.47005201 12.8125 -0.25 C18.68204138 -2.26241419 23.16054131 -2.21450184 28.9140625 -0.09375 C32.81690488 1.95268421 35.03886954 5.07773909 37 9 C37.33 5.7 37.66 2.4 38 -1 C48.66666667 -1 59.33333333 -1 70 -1 C70.33 7.58 70.66 16.16 71 25 C74.3 16.42 77.6 7.84 81 -1 C84.63 -1 88.26 -1 92 -1 C103 27.08707865 103 27.08707865 103 30 C105.5625718 30.02710123 108.12485365 30.04688771 110.6875 30.0625 C111.7693457 30.07506836 111.7693457 30.07506836 112.87304688 30.08789062 C115.83323818 30.10140748 118.62704999 30.07827346 121.53125 29.46875 C124.99314744 28.8114277 128.32860876 29.14745355 131.8125 29.4375 C132.50537109 29.48970703 133.19824219 29.54191406 133.91210938 29.59570312 C135.60854437 29.72439819 137.30434863 29.86136184 139 30 C139.04254356 31.99954746 139.04080783 34.00041636 139 36 C137.26043342 37.73956658 134.8063378 37.37190386 132.4375 37.5625 C131.42558594 37.64628906 130.41367188 37.73007812 129.37109375 37.81640625 C128.58863281 37.87699219 127.80617187 37.93757813 127 38 C127 38.99 127 39.98 127 41 C129.64 41.33 132.28 41.66 135 42 C135 44.31 135 46.62 135 49 C132.04335481 50.4783226 129.25770263 50.06032783 126 50 C125.67 51.32 125.34 52.64 125 54 C126.64507218 54.19406478 128.29109594 54.38007935 129.9375 54.5625 C131.31228516 54.71912109 131.31228516 54.71912109 132.71484375 54.87890625 C133.46894531 54.91886719 134.22304687 54.95882812 135 55 C136.80447429 53.19552571 137.80343706 50.84053204 139.03320312 48.62695312 C140.25413712 46.43005584 141.49352632 44.24429087 142.734375 42.05859375 C144.02290711 39.77852046 145.23797038 37.5140324 146.390625 35.16015625 C147.5 33 147.5 33 150 30 C153.13388292 29.36151791 155.85562041 29.59094923 159 30 C161.47164122 35.98178715 162.78853012 41.60405038 163.6875 48 C163.81705078 48.87011719 163.94660156 49.74023438 164.08007812 50.63671875 C164.39457518 52.75666186 164.69841096 54.87818209 165 57 C166.9560219 51.81781211 167.77858808 46.70005432 168.5625 41.25 C168.81077792 39.54643152 169.06194057 37.8432802 169.31640625 36.140625 C169.42412354 35.39329102 169.53184082 34.64595703 169.64282227 33.87597656 C170 32 170 32 171 30 C174.3 30 177.6 30 181 30 C181.50806447 31.72681437 182.00610467 33.45657979 182.5 35.1875 C182.91765625 36.63189453 182.91765625 36.63189453 183.34375 38.10546875 C183.96677608 40.85345876 184.12302812 43.19598416 184 46 C185.89166815 46.03100599 185.89166815 46.03100599 188 45 C189.8140337 42.09534281 191.33374043 39.17954392 192.82421875 36.10351562 C194.53697674 32.81788625 195.65430744 31.17284628 199.0078125 29.49609375 C201.90989905 29.01493841 203.26088314 29.19774048 206 30 C206.28591961 37.30484887 205.48492985 43.98128341 204 51.125 C203.80921875 52.08148438 203.6184375 53.03796875 203.421875 54.0234375 C202.95639952 56.35081492 202.48236048 58.67607444 202 61 C199.07175348 61.97608217 197.04386724 62.08226668 194 62 C193.29925156 58.846632 193 56.27275026 193 53 C190.85085852 54.87327285 190.85085852 54.87327285 190.0625 57.5 C189 60 189 60 186 62 C183.3125 62.125 183.3125 62.125 181 62 C180.79503906 61.37351563 180.59007812 60.74703125 180.37890625 60.1015625 C180.10949219 59.28429687 179.84007812 58.46703125 179.5625 57.625 C179.29566406 56.81289063 179.02882813 56.00078125 178.75390625 55.1640625 C178.04820271 52.98968201 178.04820271 52.98968201 177 51 C176.86722656 51.71027344 176.73445312 52.42054687 176.59765625 53.15234375 C176.42105469 54.07144531 176.24445313 54.99054687 176.0625 55.9375 C175.88847656 56.85402344 175.71445312 57.77054688 175.53515625 58.71484375 C175 61 175 61 174 62 C171.34346557 62.10002455 168.71870728 62.13877463 166.0625 62.125 C165.32064453 62.12886719 164.57878906 62.13273437 163.81445312 62.13671875 C158.25327002 62.12663501 158.25327002 62.12663501 156 61 C155.375 58.9375 155.375 58.9375 155 57 C153.39479996 57.06023265 151.79065673 57.14908599 150.1875 57.25 C149.29417969 57.29640625 148.40085938 57.3428125 147.48046875 57.390625 C144.84287812 57.73622685 144.84287812 57.73622685 143.71435547 60.01147461 C142 62 142 62 139.30444336 62.4699707 C138.24362549 62.45538818 137.18280762 62.44080566 136.08984375 62.42578125 C134.93548828 62.41740234 133.78113281 62.40902344 132.59179688 62.40039062 C131.38587891 62.37138672 130.17996094 62.34238281 128.9375 62.3125 C127.72771484 62.30283203 126.51792969 62.29316406 125.27148438 62.28320312 C116.3366681 62.16833405 116.3366681 62.16833405 114 61 C114.3097647 58.1038504 114.62271188 55.20810424 114.9375 52.3125 C115.06801758 51.08756836 115.06801758 51.08756836 115.20117188 49.83789062 C115.63758728 45.84549781 116.11302376 41.92347148 117 38 C114.69 38 112.38 38 110 38 C109.85377197 38.69150146 109.70754395 39.38300293 109.55688477 40.09545898 C108.89595285 43.21030709 108.22930546 46.32390423 107.5625 49.4375 C107.21735352 51.07041992 107.21735352 51.07041992 106.86523438 52.73632812 C106.64287109 53.77080078 106.42050781 54.80527344 106.19140625 55.87109375 C105.98717041 56.82943115 105.78293457 57.78776855 105.57250977 58.77514648 C105 61 105 61 104 62 C101.66702567 62.04092937 99.33294775 62.04241723 97 62 C95.39824901 57.92667298 96.56132447 54.1161608 97.4375 50 C98.27928397 45.94179258 99 42.17307873 99 38 C96.69 37.34 94.38 36.68 92 36 C92.020625 35.0925 92.04125 34.185 92.0625 33.25 C92.11818511 29.83853378 92.11818511 29.83853378 91 26 C87.7 26 84.4 26 81 26 C79.91915479 29.63619656 79.91915479 29.63619656 80 32 C80.495 32.4125 80.99 32.825 81.5 33.25 C83.65847858 35.76822501 83.21374961 37.79375585 83 41 C82.34 41 81.68 41 81 41 C81 41.66 81 42.32 81 43 C81.66 43 82.32 43 83 43 C83.41859743 49.06966268 83.14344799 52.20232338 79 57 C72.77617312 61.69962438 67.66111438 62.835324 60 62 C55.85143812 60.11429005 53.92475409 58.33884225 52.125 54.25 C51.75375 53.1775 51.3825 52.105 51 51 C50.79503906 51.71027344 50.59007812 52.42054687 50.37890625 53.15234375 C50.10949219 54.07144531 49.84007812 54.99054687 49.5625 55.9375 C49.29566406 56.85402344 49.02882813 57.77054688 48.75390625 58.71484375 C48 61 48 61 47 62 C43.75 62.5625 43.75 62.5625 40 62 C37.77910365 59.61962439 36.42345778 56.90948513 35 54 C34.401875 52.845 33.80375 51.69 33.1875 50.5 C32.795625 49.675 32.40375 48.85 32 48 C29.88799471 51.72155771 29.61895431 54.87047298 29.34375 59.07421875 C29.2303125 59.70972656 29.116875 60.34523437 29 61 C26.04335481 62.4783226 23.25770263 62.06032783 20 62 C18.98671609 58.96014827 18.99055791 57.91188367 19.48828125 54.8671875 C19.61783203 54.06023438 19.74738281 53.25328125 19.88085938 52.421875 C20.09452148 51.16117188 20.09452148 51.16117188 20.3125 49.875 C20.44333984 49.05773438 20.57417969 48.24046875 20.70898438 47.3984375 C21.61242609 41.88176922 22.74506735 36.44717489 24 31 C23.34 31 22.68 31 22 31 C21.96261719 31.680625 21.92523438 32.36125 21.88671875 33.0625 C21.46244969 39.31838883 20.66480454 45.40818051 19.5 51.5625 C19.36940186 52.25279297 19.23880371 52.94308594 19.10424805 53.65429688 C18.54606586 56.51343399 17.92237936 59.23286192 17 62 C14.36 62 11.72 62 9 62 C7.72601173 58.33575649 8.24537109 55.54275135 8.9609375 51.7734375 C9.18523437 50.5771875 9.40953125 49.3809375 9.640625 48.1484375 C9.88296875 46.90320312 10.1253125 45.65796875 10.375 44.375 C10.60960937 43.12203125 10.84421875 41.8690625 11.0859375 40.578125 C12.8490037 31.3019926 12.8490037 31.3019926 14 29 C13.4225 28.773125 12.845 28.54625 12.25 28.3125 C9.4336339 26.66961977 7.91922886 24.60466773 6 22 C4.68 24.31 3.36 26.62 2 29 C2.48210937 29.36351563 2.96421875 29.72703125 3.4609375 30.1015625 C7.57776088 33.37821784 9.85437362 35.65374355 11 41 C7.95016004 42.52491998 5.3576631 42.23562548 2 42 C0.97980427 41.0206121 -0.02149805 40.02104551 -1 39 C-4.57071442 38.46819147 -6.29755331 38.52537386 -9.3125 40.5625 C-11.52899129 43.76409854 -11.92959373 46.12765506 -12 50 C-11.03882095 52.12870693 -11.03882095 52.12870693 -9 53 C-5.51967799 52.73897585 -3.94903702 51.96602468 -1 50 C1.26171875 49.8046875 1.26171875 49.8046875 3.6875 49.875 C4.49574219 49.89304688 5.30398437 49.91109375 6.13671875 49.9296875 C6.75160156 49.95289063 7.36648437 49.97609375 8 50 C7.77854028 53.87554506 7.06286207 54.9399318 4.1875 57.6875 C-1.61396421 61.89640541 -5.85188955 62.90339469 -13 62 C-16.83378636 60.18766463 -18.53351018 58.69973473 -20.875 55.1875 C-23.18478627 48.64310557 -21.94249835 44.09620327 -19.16796875 38.015625 C-17.97426248 35.95558342 -16.83036876 34.51810113 -15 33 C-14.34 33 -13.68 33 -13 33 C-13.79963199 29.81778213 -13.79963199 29.81778213 -16.5 27.625 C-19.09249105 24.9028844 -19.68622501 23.66070817 -20 20 C-17.69 19.34 -15.38 18.68 -13 18 C-14.4540625 16.9790625 -14.4540625 16.9790625 -15.9375 15.9375 C-18.58085922 13.7263488 -19.0008622 12.99715981 -20.0625 9.5 C-19.99041022 5.46297239 -19.72626703 3.97410949 -17 1 C-11.33215152 -2.5440645 -6.1119183 -2.45439239 0 0 Z M-9 7 C-8.67 7.66 -8.34 8.32 -8 9 C-7.67 8.34 -7.34 7.68 -7 7 C-7.66 7 -8.32 7 -9 7 Z M53.4375 6.5 C52.42558594 6.5928125 51.41367188 6.685625 50.37109375 6.78125 C49.58863281 6.8534375 48.80617188 6.925625 48 7 C48 8.32 48 9.64 48 11 C50.64 11.33 53.28 11.66 56 12 C56 13.98 56 15.96 56 18 C53.36 18.33 50.72 18.66 48 19 C48 22.63 48 26.26 48 30 C49.65 30 51.3 30 53 30 C52.67 33.96 52.34 37.92 52 42 C52.556875 41.278125 53.11375 40.55625 53.6875 39.8125 C56 37 56 37 58.65625 35.15625 C62.44076652 30.05976776 61.27030144 24.81018254 60.8125 18.6875 C60.74224609 17.46998047 60.67199219 16.25246094 60.59960938 14.99804688 C60.42304524 11.99645655 60.22240375 8.99848481 60 6 C57.81125763 6 55.61435695 6.29982925 53.4375 6.5 Z M16.125 9.0625 C14.35726726 12.1069286 14.63176084 14.5631012 15 18 C16.45858864 20.18788297 17.53580308 20.80533678 19.9375 21.8125 C22.56765449 22.05160495 23.81192864 21.433564 26 20 C27.52491998 16.95016004 27.23562548 14.3576631 27 11 C26.01951062 8.93597315 26.01951062 8.93597315 24 8 C20.88188517 7.61023565 18.88980433 7.49577755 16.125 9.0625 Z M86 12 C85.67 13.65 85.34 15.3 85 17 C85.99 17 86.98 17 88 17 C87.67 15.35 87.34 13.7 87 12 C86.67 12 86.34 12 86 12 Z M4 15 C5 17 5 17 5 17 Z M37 18 C36.74605469 18.54269531 36.49210937 19.08539062 36.23046875 19.64453125 C35.88628906 20.35996094 35.54210937 21.07539063 35.1875 21.8125 C34.85105469 22.52019531 34.51460937 23.22789063 34.16796875 23.95703125 C32.99354529 26.01129035 31.74371984 27.41616278 30 29 C30.75667969 29.68449219 31.51335937 30.36898437 32.29296875 31.07421875 C35.17909946 34.19357214 36.62657026 36.93094083 38.3125 40.8125 C38.82425781 41.97394531 39.33601563 43.13539062 39.86328125 44.33203125 C40.23839844 45.21246094 40.61351562 46.09289062 41 47 C41.33 47 41.66 47 42 47 C42.66 41.72 43.32 36.44 44 31 C42.35 30.67 40.7 30.34 39 30 C38.67 26.04 38.34 22.08 38 18 C37.67 18 37.34 18 37 18 Z M-10 19 C-9.34 20.32 -8.68 21.64 -8 23 C-7.34 23 -6.68 23 -6 23 C-6 22.01 -6 21.02 -6 20 C-7.32 19.67 -8.64 19.34 -10 19 Z M63.625 39.8125 C60.77094468 43.65449754 60.66370396 46.20778136 61 51 C61.98048938 53.06402685 61.98048938 53.06402685 64 54 C68.07794425 54.42478586 69.53076119 54.31282587 73 52 C72.67 51.34 72.34 50.68 72 50 C68.97065509 49.34227572 68.97065509 49.34227572 66 49 C66.33 47.35 66.66 45.7 67 44 C69.64 43.67 72.28 43.34 75 43 C74.51294288 40.93597032 74.51294288 40.93597032 73 39 C68.01632399 37.50800456 68.01632399 37.50800456 63.625 39.8125 Z M51 43 C52 47 52 47 52 47 Z M152 43 C151.01 44.98 150.02 46.96 149 49 C151.475 49.495 151.475 49.495 154 50 C154 48.02 154 46.04 154 44 C153.34 43.67 152.68 43.34 152 43 Z " fill="#F8FCFE" transform="translate(83,5)"/>
<path d="M0 0 C0.11643304 3.89558088 0.18732909 7.79071258 0.25 11.6875 C0.30027344 13.34168945 0.30027344 13.34168945 0.3515625 15.02929688 C0.45112665 23.2682306 0.45112665 23.2682306 -2.015625 27.26953125 C-2.67046875 27.84058594 -3.3253125 28.41164063 -4 29 C-3.30148926 29.78274292 -3.30148926 29.78274292 -2.58886719 30.58129883 C-0.59715811 33.61323826 -0.18021568 36.12618384 0.421875 39.69921875 C0.75251953 41.63571289 0.75251953 41.63571289 1.08984375 43.61132812 C1.19796387 44.2797876 1.30608398 44.94824707 1.41748047 45.63696289 C1.75094588 47.69333291 2.10259319 49.74597975 2.45703125 51.79882812 C3.68794628 59.1585207 3.68794628 59.1585207 4 62 C3 63 3 63 1.15234375 63.09765625 C-0.8984375 63.06510417 -2.94921875 63.03255208 -5 63 C-5.66 61.35 -6.32 59.7 -7 58 C-8.60520004 58.06023265 -10.20934327 58.14908599 -11.8125 58.25 C-12.70582031 58.29640625 -13.59914062 58.3428125 -14.51953125 58.390625 C-17.16159049 58.73543324 -17.16159049 58.73543324 -18.28125 61.03125 C-20 63 -20 63 -21.82104492 63.32714844 C-24.12120265 63.39379739 -26.38851513 63.3480699 -28.6875 63.25 C-29.48478516 63.23195313 -30.28207031 63.21390625 -31.10351562 63.1953125 C-33.06952449 63.14822247 -35.03491494 63.07647899 -37 63 C-38.32 60.36 -39.64 57.72 -41 55 C-42.77706209 57.66559313 -43.87548273 60.0280615 -45 63 C-47.31 63 -49.62 63 -52 63 C-53.26627156 59.34360622 -52.76715219 56.53855089 -52.07421875 52.7734375 C-51.85443359 51.5771875 -51.63464844 50.3809375 -51.40820312 49.1484375 C-51.17037109 47.90320312 -50.93253906 46.65796875 -50.6875 45.375 C-50.46126953 44.12203125 -50.23503906 42.8690625 -50.00195312 41.578125 C-48.25515469 32.25515469 -48.25515469 32.25515469 -46 30 C-45.62948007 27.6754661 -45.62948007 27.6754661 -45.5859375 24.9921875 C-45.54726563 24.00605469 -45.50859375 23.01992188 -45.46875 22.00390625 C-45.42234375 20.45509766 -45.42234375 20.45509766 -45.375 18.875 C-45.31699219 17.31458984 -45.31699219 17.31458984 -45.2578125 15.72265625 C-45.16335234 13.14861689 -45.07778786 10.57458845 -45 8 C-47.64 8 -50.28 8 -53 8 C-53 5.36 -53 2.72 -53 0 C-41.45 0 -29.9 0 -18 0 C-17.505 7.425 -17.505 7.425 -17 15 C-16.505 17.97 -16.505 17.97 -16 21 C-14.35 21 -12.7 21 -11 21 C-10.34 14.07 -9.68 7.14 -9 0 C-3 -1 -3 -1 0 0 Z M-35 8 C-35 15.59 -35 23.18 -35 31 C-32.36 31.66 -29.72 32.32 -27 33 C-24.49695622 36.75456567 -24.54719926 38.54745934 -25 43 C-26.75494081 46.10039543 -28.48825667 48.48825667 -31 51 C-30.87685232 53.19810742 -30.87685232 53.19810742 -30.25 55.5625 C-30.06953125 56.36816406 -29.8890625 57.17382812 -29.703125 58.00390625 C-29.19166229 60.19376732 -29.19166229 60.19376732 -27 61 C-26.49210937 59.97261719 -25.98421875 58.94523437 -25.4609375 57.88671875 C-21.8015631 50.512687 -18.09854848 43.20010397 -14.03125 36.0390625 C-12.84956276 34.08337888 -12.84956276 34.08337888 -13 32 C-13.9075 31.87625 -14.815 31.7525 -15.75 31.625 C-19.86435106 30.83377864 -22.04761935 30.29116282 -24.5703125 26.87109375 C-26.30275717 23.39200405 -26.50398111 20.68270955 -26.6875 16.8125 C-26.78611328 14.96591797 -26.78611328 14.96591797 -26.88671875 13.08203125 C-26.9489562 11.38874343 -27 9.69443121 -27 8 C-29.64 8 -32.28 8 -35 8 Z M-40 39 C-40 40.65 -40 42.3 -40 44 C-38.35 44 -36.7 44 -35 44 C-34.34 42.68 -33.68 41.36 -33 40 C-34.12534105 38.64381501 -34.12534105 38.64381501 -37.0625 38.9375 C-38.031875 38.958125 -39.00125 38.97875 -40 39 Z M-10 44 C-12.2773501 46.81509993 -12.2773501 46.81509993 -12 50 C-10.68 50 -9.36 50 -8 50 C-8 48.35 -8 46.7 -8 45 C-8.66 44.67 -9.32 44.34 -10 44 Z " fill="#F7FCFE" transform="translate(56,4)"/>
<path d="M0 0 C2.97 0 5.94 0 9 0 C9 9.24 9 18.48 9 28 C9.66 28 10.32 28 11 28 C11 28.66 11 29.32 11 30 C12.32 30.66 13.64 31.32 15 32 C11.7 32 8.4 32 5 32 C5.99 31.67 6.98 31.34 8 31 C8 21.1 8 11.2 8 1 C5.69 1 3.38 1 1 1 C1 11.23 1 21.46 1 32 C1.99 32.33 2.98 32.66 4 33 C3.0925 33.556875 2.185 34.11375 1.25 34.6875 C-2.42403253 37.30171545 -4.97923839 39.95847678 -7 44 C-7.22622081 45.70363822 -7.40888473 47.41328701 -7.5625 49.125 C-7.68818359 50.49011719 -7.68818359 50.49011719 -7.81640625 51.8828125 C-7.87699219 52.58148438 -7.93757812 53.28015625 -8 54 C-10 52 -10 52 -10.0625 48.625 C-10.041875 47.42875 -10.02125 46.2325 -10 45 C-10.2784375 43.948125 -10.2784375 43.948125 -10.5625 42.875 C-11.14535945 40.37703091 -10.61480045 38.45920181 -10 36 C-9.67 36 -9.34 36 -9 36 C-8.67 37.65 -8.34 39.3 -8 41 C-4.27211181 37.83027584 -1.36516758 34.94110386 -0.43847656 30.01513672 C-0.34769568 26.63329396 -0.43808718 23.31528162 -0.625 19.9375 C-0.70463397 17.65508771 -0.78026976 15.3725318 -0.8515625 13.08984375 C-0.89055664 12.03265137 -0.92955078 10.97545898 -0.96972656 9.88623047 C-1.00565685 6.46068288 -0.65265036 3.35579175 0 0 Z " fill="#E8F6FE" transform="translate(144,4)"/>
<path d="M0 0 C1.11761719 0.07831055 1.11761719 0.07831055 2.2578125 0.15820312 C4.08894861 0.2873217 5.91953813 0.42415114 7.75 0.5625 C7.42 1.5525 7.09 2.5425 6.75 3.5625 C6.75 2.9025 6.75 2.2425 6.75 1.5625 C0.81 1.5625 -5.13 1.5625 -11.25 1.5625 C-11.394375 3.109375 -11.53875 4.65625 -11.6875 6.25 C-12.03408405 9.74059654 -12.45162921 13.14091089 -13.25 16.5625 C-13.58 16.5625 -13.91 16.5625 -14.25 16.5625 C-14.25 13.9225 -14.25 11.2825 -14.25 8.5625 C-17.66656024 8.39572718 -17.66656024 8.39572718 -21.25 8.5625 C-21.91 9.2225 -22.57 9.8825 -23.25 10.5625 C-23.25 9.2425 -23.25 7.9225 -23.25 6.5625 C-20.61 6.2325 -17.97 5.9025 -15.25 5.5625 C-14.92 4.2425 -14.59 2.9225 -14.25 1.5625 C-21.84 1.5625 -29.43 1.5625 -37.25 1.5625 C-37.25 1.2325 -37.25 0.9025 -37.25 0.5625 C-36.14543457 0.57035522 -36.14543457 0.57035522 -35.01855469 0.57836914 C-31.67904515 0.59916867 -28.33954926 0.61216968 -25 0.625 C-23.84113281 0.63337891 -22.68226563 0.64175781 -21.48828125 0.65039062 C-20.37324219 0.65361328 -19.25820312 0.65683594 -18.109375 0.66015625 C-17.08295898 0.66539307 -16.05654297 0.67062988 -14.99902344 0.67602539 C-9.84443382 0.46315823 -5.27060675 -0.40507313 0 0 Z " fill="#DBF2FE" transform="translate(214.25,34.4375)"/>
<path d="M0 0 C0.9590625 0.4640625 0.9590625 0.4640625 1.9375 0.9375 C5.93856708 2.32562531 9.80098366 2.62134474 14 3 C15.6879009 3.18385607 17.37542546 3.37120966 19.0625 3.5625 C20.361875 3.706875 21.66125 3.85125 23 4 C23 4.33 23 4.66 23 5 C20.69 5.33 18.38 5.66 16 6 C15.34 9.63 14.68 13.26 14 17 C13.67 17 13.34 17 13 17 C13.33 13.04 13.66 9.08 14 5 C13.34 5 12.68 5 12 5 C11.67 5.99 11.34 6.98 11 8 C11 7.01 11 6.02 11 5 C8.69 5.33 6.38 5.66 4 6 C4 5.01 4 4.02 4 3 C2.68 2.34 1.36 1.68 0 1 C0 0.67 0 0.34 0 0 Z " fill="#DDF2FE" transform="translate(93,31)"/>
<path d="M0 0 C0.33 0 0.66 0 1 0 C1 9.9 1 19.8 1 30 C0.67 30 0.34 30 0 30 C-0.33 26.37 -0.66 22.74 -1 19 C-1.33 19 -1.66 19 -2 19 C-2.33 15.37 -2.66 11.74 -3 8 C-2.01 8.495 -2.01 8.495 -1 9 C-0.67 6.03 -0.34 3.06 0 0 Z " fill="#DDF2FE" transform="translate(121,5)"/>
<path d="M0 0 C0.33 0 0.66 0 1 0 C1 8.91 1 17.82 1 27 C1.66 27 2.32 27 3 27 C3 27.66 3 28.32 3 29 C4.32 29.66 5.64 30.32 7 31 C3.7 31 0.4 31 -3 31 C-2.01 30.67 -1.02 30.34 0 30 C0 20.1 0 10.2 0 0 Z " fill="#D5EFFE" transform="translate(152,5)"/>
<path d="M0 0 C0.66 0.66 1.32 1.32 2 2 C2.33 1.34 2.66 0.68 3 0 C3.66 0 4.32 0 5 0 C5 0.66 5 1.32 5 2 C7.97 2 10.94 2 14 2 C14 2.33 14 2.66 14 3 C9.545 3.495 9.545 3.495 5 4 C6.98 4.99 8.96 5.98 11 7 C8 8 8 8 5.95703125 7.22265625 C5.24933594 6.83980469 4.54164062 6.45695312 3.8125 6.0625 C3.09707031 5.68222656 2.38164063 5.30195313 1.64453125 4.91015625 C1.10183594 4.60980469 0.55914062 4.30945313 0 4 C0 2.68 0 1.36 0 0 Z " fill="#E4F5FE" transform="translate(73,11)"/>
<path d="M0 0 C1.15837573 3.47512718 0.77265943 5.13670286 0.0625 8.6875 C-0.13214844 9.68136719 -0.32679688 10.67523438 -0.52734375 11.69921875 C-0.68332031 12.45847656 -0.83929688 13.21773437 -1 14 C-1.66 12.68 -2.32 11.36 -3 10 C-3.99 10.66 -4.98 11.32 -6 12 C-4.68139111 7.38486888 -2.78644563 3.90102388 0 0 Z " fill="#E5F5FE" transform="translate(279,48)"/>
<path d="M0 0 C0.33 0 0.66 0 1 0 C1.13277344 0.60328125 1.26554687 1.2065625 1.40234375 1.828125 C1.57894531 2.62734375 1.75554687 3.4265625 1.9375 4.25 C2.19853516 5.43335938 2.19853516 5.43335938 2.46484375 6.640625 C2.947556 8.76878703 3.46163178 10.88532842 4 13 C3.01 12.01 2.02 11.02 1 10 C0.34 11.32 -0.32 12.64 -1 14 C-2 12 -2 12 -1.9375 9.125 C-1.99919206 6.04039681 -2.41229856 4.58001484 -4 2 C-3.01 2 -2.02 2 -1 2 C-0.67 1.34 -0.34 0.68 0 0 Z M-1 3 C0 5 0 5 0 5 Z " fill="#E5F5FE" transform="translate(88,17)"/>
<path d="M0 0 C2.39763185 2.39763185 2.34280586 3.33273498 2.625 6.625 C2.69976562 7.44226562 2.77453125 8.25953125 2.8515625 9.1015625 C2.92503906 10.04128906 2.92503906 10.04128906 3 11 C0.8614515 8.8614515 0.57344937 7.86724686 0 5 C-0.99 5.66 -1.98 6.32 -3 7 C-1.125 1.125 -1.125 1.125 0 0 Z " fill="#E4F5FE" transform="translate(47,44)"/>
<path d="M0 0 C0.66 0 1.32 0 2 0 C2 4 2 4 0.625 5.5 C0.08875 5.995 -0.4475 6.49 -1 7 C-2.17574711 9.09989652 -2.17574711 9.09989652 -3 11 C-3.66 10.67 -4.32 10.34 -5 10 C-3.35 6.7 -1.7 3.4 0 0 Z " fill="#E3F4FE" transform="translate(235,44)"/>
</svg>
